<svg xmlns="http://www.w3.org/2000/svg" viewBox="0 0 864.42 776.42"><defs><style>.cls-1{fill:none;stroke:#70c8b9;stroke-linecap:round;stroke-linejoin:round;stroke-width:56.69px;}</style></defs><title>icon-4</title><g id="Layer_2" data-name="Layer 2"><g id="Layer_1-2" data-name="Layer 1"><circle class="cls-1" cx="658.57" cy="570.57" r="105.5"/><rect class="cls-1" x="653.07" y="393.07" width="10" height="72" rx="5"/><circle class="cls-1" cx="300.57" cy="300.57" r="175.5"/><rect class="cls-1" x="306.21" y="28.31" width="10" height="72" rx="5" transform="translate(3.37 -14.58) rotate(2.7)"/><rect class="cls-1" x="136.03" y="89.99" width="10" height="72" rx="5" transform="translate(-48.07 127.72) rotate(-42.3)"/><rect class="cls-1" x="59.31" y="253.94" width="10" height="72" rx="5" transform="translate(-228.33 340.52) rotate(-87.3)"/><rect class="cls-1" x="120.99" y="424.11" width="10" height="72" rx="5" transform="translate(-129.53 862.96) rotate(-132.3)"/><rect class="cls-1" x="284.94" y="500.83" width="10" height="72" rx="5" transform="translate(554.27 1086.73) rotate(-177.3)"/><rect class="cls-1" x="455.11" y="439.16" width="10" height="72" rx="5" transform="translate(1120.21 516.93) rotate(137.7)"/><rect class="cls-1" x="531.83" y="275.21" width="10" height="72" rx="5" transform="translate(872.98 -210.37) rotate(92.7)"/><rect class="cls-1" x="470.16" y="105.03" width="10" height="72" rx="5" transform="matrix(0.67, 0.74, -0.74, 0.67, 259.68, -305.32)"/><rect class="cls-1" x="553.16" y="434.87" width="10" height="72" rx="5" transform="translate(-169.47 532.6) rotate(-45)"/><rect class="cls-1" x="512.07" y="535.07" width="10" height="72" rx="5" transform="translate(-54 1088.15) rotate(-90)"/><rect class="cls-1" x="553.87" y="634.98" width="10" height="72" rx="5" transform="translate(479.6 1540.62) rotate(-135)"/><rect class="cls-1" x="654.07" y="676.07" width="10" height="72" rx="5" transform="translate(1318.15 1424.15) rotate(180)"/><rect class="cls-1" x="753.98" y="634.28" width="10" height="72" rx="5" transform="translate(1769.62 607.55) rotate(135)"/><rect class="cls-1" x="795.07" y="534.07" width="10" height="72" rx="5" transform="translate(1370.15 -230) rotate(90)"/><rect class="cls-1" x="753.28" y="434.16" width="10" height="72" rx="5" transform="translate(554.55 -398.47) rotate(45)"/></g></g></svg>