<svg xmlns="http://www.w3.org/2000/svg" viewBox="0 0 766.26 716.57"><defs><style>.cls-1{fill:none;stroke:#70c8b9;stroke-linecap:round;stroke-linejoin:round;stroke-width:22.68px;}</style></defs><title>icon-3</title><g id="Layer_2" data-name="Layer 2"><g id="Layer_1-2" data-name="Layer 1"><line class="cls-1" x1="517.79" y1="574.09" x2="666.3" y2="545.45"/><path class="cls-1" d="M747.54,624.66,330.94,705c-6.47,1.25-14.31-2.74-17.44-8.87L12.63,105.33c-3.12-6.13-.38-12.17,6.09-13.42l416.6-80.34c6.46-1.25,14.31,2.74,17.44,8.88L753.63,611.24C756.75,617.37,754,623.41,747.54,624.66Z"/><line class="cls-1" x1="119.36" y1="179.62" x2="338.2" y2="137.41"/><line class="cls-1" x1="174.73" y1="286.77" x2="393.57" y2="244.56"/><line class="cls-1" x1="230.11" y1="393.92" x2="448.95" y2="351.71"/><line class="cls-1" x1="285.48" y1="501.07" x2="504.32" y2="458.86"/><polyline class="cls-1" points="371.96 119.68 409.2 142.08 433.55 88.42"/><polyline class="cls-1" points="426.6 226.97 463.84 249.37 488.19 195.71"/><polyline class="cls-1" points="481.24 334.26 518.48 356.67 542.83 303"/><polyline class="cls-1" points="535.88 441.56 573.12 463.96 597.47 410.29"/></g></g></svg>