<svg xmlns="http://www.w3.org/2000/svg" viewBox="0 0 1081.76 1329.84"><defs><style>.cls-1{fill:#70c8b9;}</style></defs><title>icon-1</title><g id="Layer_2" data-name="Layer 2"><g id="Layer_1-2" data-name="Layer 1"><path class="cls-1" d="M549.92,1234H534.34v-27.54A22.48,22.48,0,0,0,511.88,1184H504c-8.79-15.13-37.55-68.55-67.27-166.32-32.38-106.5-72.45-288.63-80.78-553.84h38.86a24.57,24.57,0,0,0,24.55-24.55V423.11a24.59,24.59,0,0,0-19.25-24V384.42a26,26,0,0,0-26-26H359.55c10.27-16.36,22.93-33.62,35.26-50.42,32.63-44.48,60.81-82.89,50.58-109-4.31-11-14.62-18.16-30.64-21.26a275.13,275.13,0,0,1-70.83-23.71,21.41,21.41,0,0,0,2.13-9.31v-3.5a21.61,21.61,0,0,0-21.59-21.59H313.05v-23h15.72A25.6,25.6,0,0,0,354.34,71V67.92a25.6,25.6,0,0,0-25.57-25.57H313.05V27.13a27.13,27.13,0,0,0-54.26,0V42.35H243.07A25.6,25.6,0,0,0,217.5,67.92V71a25.6,25.6,0,0,0,25.57,25.57h15.72v23H247.38a21.62,21.62,0,0,0-21.59,21.59v3.5a21.41,21.41,0,0,0,2.13,9.31,275.13,275.13,0,0,1-70.83,23.71c-16,3.1-26.33,10.26-30.64,21.26-10.23,26.13,18,64.54,50.58,109,12.33,16.8,25,34.06,35.26,50.42H197.71a26,26,0,0,0-26,26v14.72a24.59,24.59,0,0,0-19.25,24v16.18a24.58,24.58,0,0,0,24.55,24.55h38.86c-8.32,265.21-48.4,447.34-80.77,553.84-29.73,97.78-58.5,151.21-67.28,166.32H60a22.48,22.48,0,0,0-22.46,22.46V1234H21.92A21.94,21.94,0,0,0,0,1255.92v52a21.94,21.94,0,0,0,21.92,21.92h528a21.94,21.94,0,0,0,21.92-21.92v-52A21.94,21.94,0,0,0,549.92,1234Z"/><path class="cls-1" d="M1054.91,1329.84h-376A26.88,26.88,0,0,1,652.08,1303v-83a26.88,26.88,0,0,1,25.17-26.79,62.84,62.84,0,0,1-4.16-25c.27-11.68,4.84-27.62,25-37.23,12.13-5.77,26.53-7.83,39.24-9.65,7-1,17.46-2.5,20.43-4.29-.36-2.08-2.76-6.39-4-8.56-3.35-6-7.53-13.53-3.08-21.1,1.94-3.3,6.06-7.23,14.68-7.23h2.32C790,996.67,789,954.05,787,937.39c-16.42-4.09-27.65-9.24-34.27-15.69-7.11-6.93-5.76-14.15-4.84-16.93,2.76-8.44,11.17-14.89,42.6-20.17-29.19-25-46.36-62.84-46.36-103.1,0-34.59,12.46-67.31,35.08-92.13,20.18-22.15,46.46-35.87,74.92-39.34v-.82l11.34,0h14.34V650c28.46,3.47,54.74,17.19,74.93,39.34,22.61,24.82,35.07,57.54,35.07,92.13,0,40.26-17.16,78.06-46.36,103.1,31.43,5.28,39.84,11.73,42.61,20.17.91,2.78,2.26,10-4.85,16.93-6.62,6.45-17.84,11.6-34.27,15.69-2.07,16.66-3.06,59.28,19.21,142.78h2.32c8.62,0,12.74,3.93,14.68,7.23,4.45,7.57.27,15.07-3.08,21.1-1.21,2.17-3.61,6.49-4,8.57,2.88,1.77,13.39,3.27,20.43,4.28,12.7,1.82,27.11,3.88,39.23,9.65,20.19,9.61,24.76,25.55,25,37.23a62.84,62.84,0,0,1-4.17,25,26.87,26.87,0,0,1,25.17,26.79v83A26.87,26.87,0,0,1,1054.91,1329.84Zm-376-114a4.23,4.23,0,0,0-4.17,4.17v83a4.23,4.23,0,0,0,4.17,4.18h376a4.23,4.23,0,0,0,4.17-4.18v-83a4.23,4.23,0,0,0-4.17-4.17h-5.15a18.36,18.36,0,0,1-16-27.44c3-5.33,4.47-11.93,4.29-19.63-.38-15.93-14.14-20.58-44.82-25-14-2-25.13-3.6-32.23-9.69-6.42-5.5-8.95-13.28-7.12-21.9a42.44,42.44,0,0,1,3.78-10.09,18.44,18.44,0,0,1-12.64-12.86C919.33,994.08,922.38,946.87,924.89,931a18.31,18.31,0,0,1,14-15,112.52,112.52,0,0,0,17.68-5.43,208.31,208.31,0,0,0-26.17-5,18.36,18.36,0,0,1-8.27-33c28.15-20.45,45-54.48,45-91,0-58.92-44.4-108.1-99-109.62l-.81,0h-.81l-.74,0c-54.58,1.52-99,50.7-99,109.62,0,36.55,16.81,70.58,45,91a18.36,18.36,0,0,1-8.27,33,208.31,208.31,0,0,0-26.17,5A112.52,112.52,0,0,0,795,916a18.31,18.31,0,0,1,14,15c2.51,15.88,5.57,63.09-20.17,158.27a18.4,18.4,0,0,1-12.64,12.86,42,42,0,0,1,3.78,10.09c1.83,8.62-.69,16.4-7.12,21.9-7.1,6.09-18.19,7.68-32.23,9.69-30.68,4.39-44.43,9-44.81,25-.19,7.7,1.25,14.3,4.28,19.63a18.35,18.35,0,0,1-15.95,27.44Zm289.87-113Zm-203.76,0Z"/></g></g></svg>