<svg xmlns="http://www.w3.org/2000/svg" viewBox="0 0 2771.02 1780.77"><defs><style>.cls-1{fill:#70c8b9;}</style></defs><title>illustration-1</title><g id="Layer_2" data-name="Layer 2"><g id="Layer_1-2" data-name="Layer 1"><circle class="cls-1" cx="786.01" cy="734.76" r="53"/><path class="cls-1" d="M728.56,903.76H843.45A21.56,21.56,0,0,0,865,882.2V862.46a64.71,64.71,0,0,0-64.71-64.7H771.71a64.7,64.7,0,0,0-64.7,64.7V882.2A21.55,21.55,0,0,0,728.56,903.76Z"/><circle class="cls-1" cx="1773.01" cy="526.76" r="53"/><path class="cls-1" d="M1715.56,695.76h114.89A21.56,21.56,0,0,0,1852,674.2V654.46a64.71,64.71,0,0,0-64.71-64.7h-28.59a64.7,64.7,0,0,0-64.7,64.7V674.2A21.55,21.55,0,0,0,1715.56,695.76Z"/><circle class="cls-1" cx="2583.01" cy="1265.76" r="53"/><path class="cls-1" d="M2597.3,1328.76h-28.59a64.7,64.7,0,0,0-64.7,64.7v19.74a21.55,21.55,0,0,0,21.55,21.56h114.89A21.56,21.56,0,0,0,2662,1413.2v-19.74A64.71,64.71,0,0,0,2597.3,1328.76Z"/><path class="cls-1" d="M2583,1140.75c-97.31,0-177.58,74.3-187.07,169.15l-220.7,1.07c-8.64-95.71-89.31-171-187.23-171q-7.65,0-15.13.61L1857.45,757.7c61.38-31,103.57-94.63,103.57-167.94,0-103.67-84.34-188-188-188s-188,84.34-188,188a187.11,187.11,0,0,0,41.79,118L1336.67,993.49a187.72,187.72,0,0,0-267.62,33.25L943.77,901.46l-3.17,3.16A186.88,186.88,0,0,0,974,797.76c0-103.67-84.34-188-188-188a187,187,0,0,0-72,14.35l-128.83-281A187.94,187.94,0,0,0,667,188C667,84.34,582.68,0,479,0S291,84.34,291,188s84.34,188,188,188a186.88,186.88,0,0,0,73.78-15.1L681.47,641.57a187.78,187.78,0,0,0-53.46,258L307.27,1182.77A187.18,187.18,0,0,0,188,1140C84.34,1140,0,1224.34,0,1328s84.34,188,188,188a188.1,188.1,0,0,0,162.33-93.26l681.18,183.91c7.14,97.2,88.5,174.1,187.49,174.1,98.44,0,179.44-76.06,187.36-172.49l413.87-195.47C1851.3,1474,1914.83,1516,1988,1516c97,0,177-73.81,187-168.2l220.9-1.07c9.08,95.26,89.54,170,187.14,170,103.67,0,188-84.34,188-188S2686.68,1140.75,2583,1140.75ZM325,188C325,103.1,394.1,34,479,34S633,103.1,633,188,563.92,342,479,342,325,272.92,325,188ZM1773,435.77c84.91,0,154,69.08,154,154s-69.08,154-154,154-154-69.08-154-154S1688.1,435.77,1773,435.77ZM1219,986c84.91,0,154,69.08,154,154,0,82-64.48,149.29-145.43,153.75h-17.13C1129.5,1289.3,1065,1222,1065,1140,1065,1055.1,1134.1,986,1219,986ZM786,643.77c84.91,0,154,69.08,154,154s-69.08,154-154,154-154-69.08-154-154S701.1,643.77,786,643.77ZM188,1482c-84.91,0-154-69.08-154-154s69.08-154,154-154,154,69.08,154,154S272.92,1482,188,1482Zm145.35-273.11L651,928.43a187.67,187.67,0,0,0,268.88,1.22l129.46,129.47A186.91,186.91,0,0,0,1031,1140c0,97.62,74.79,178.09,170.08,187.15v78.45c-87.36,8.3-157.49,76.63-168.56,163.17l-666.59-180a187.81,187.81,0,0,0-32.57-179.91ZM1219,1746.75c-84.91,0-154-69.08-154-154s69.08-154,154-154,154,69.08,154,154S1303.92,1746.75,1219,1746.75ZM1405.38,1568c-11.34-85.84-80.82-153.59-167.45-162.29v-78.63c94.82-9.52,169.09-89.78,169.09-187.06a187.18,187.18,0,0,0-44-120.74l289.64-285.21A187.72,187.72,0,0,0,1823,771l113.4,376.2c-78.65,22.49-136.38,95-136.38,180.8a187.77,187.77,0,0,0,6.86,50.37ZM1988,1482c-84.91,0-154-69.08-154-154s69.08-154,154-154,154,69.08,154,154S2072.92,1482,1988,1482Zm595,.75c-84.91,0-154-69.08-154-154s69.08-154,154-154,154,69.08,154,154S2667.92,1482.75,2583,1482.75Z"/><circle class="cls-1" cx="1219.01" cy="1529.76" r="53"/><path class="cls-1" d="M1233.3,1592.76h-28.59a64.7,64.7,0,0,0-64.7,64.7v19.74a21.55,21.55,0,0,0,21.55,21.56h114.89A21.56,21.56,0,0,0,1298,1677.2v-19.74A64.71,64.71,0,0,0,1233.3,1592.76Z"/><path class="cls-1" d="M1198.35,1219.36h40.88V1251h40V1029H1158.78v222h39.57Zm27.25-177.6h40.89v31.65H1225.6Zm0,44.4h40.89v31.65H1225.6Zm0,44.4h40.89v31.65H1225.6Zm0,44.4h40.89v31.65H1225.6Zm-54.07-133.2h41.32v31.65h-41.32Zm0,44.4h41.32v31.65h-41.32Zm0,44.4h41.32v31.65h-41.32Zm0,44.4h41.32v31.65h-41.32Z"/><path class="cls-1" d="M418.78,299h39.57V267.36h40.88V299h40V77H418.78ZM485.6,89.76h40.89v31.65H485.6Zm0,44.4h40.89v31.65H485.6Zm0,44.4h40.89v31.65H485.6Zm0,44.4h40.89v31.65H485.6ZM431.53,89.76h41.32v31.65H431.53Zm0,44.4h41.32v31.65H431.53Zm0,44.4h41.32v31.65H431.53Zm0,44.4h41.32v31.65H431.53Z"/><path class="cls-1" d="M127.78,1439h39.57v-31.65h40.88V1439h40V1217H127.78Zm66.82-209.25h40.89v31.65H194.6Zm0,44.4h40.89v31.65H194.6Zm0,44.4h40.89v31.65H194.6Zm0,44.4h40.89v31.65H194.6Zm-54.07-133.2h41.32v31.65H140.53Zm0,44.4h41.32v31.65H140.53Zm0,44.4h41.32v31.65H140.53Zm0,44.4h41.32v31.65H140.53Z"/><path class="cls-1" d="M1927.78,1439h39.57v-31.65h40.88V1439h40V1217H1927.78Zm66.82-209.25h40.89v31.65H1994.6Zm0,44.4h40.89v31.65H1994.6Zm0,44.4h40.89v31.65H1994.6Zm0,44.4h40.89v31.65H1994.6Zm-54.07-133.2h41.32v31.65h-41.32Zm0,44.4h41.32v31.65h-41.32Zm0,44.4h41.32v31.65h-41.32Zm0,44.4h41.32v31.65h-41.32Z"/></g></g></svg>