<svg xmlns="http://www.w3.org/2000/svg" viewBox="0 0 2894.05 2280.05"><defs><style>.cls-1{fill:#70c8b9;}</style></defs><title>icon-2</title><g id="Layer_2" data-name="Layer 2"><g id="Layer_1-2" data-name="Layer 1"><path class="cls-1" d="M2225.88,1739.89l12.87-12.87c55.53-55.53,55.53-145.88,0-201.41l-78.54-78.55,41.94-41.94a194.68,194.68,0,0,0,0-274.62L1764,692.33a194.7,194.7,0,0,0-274.62,0l-41.94,41.95-42-41.95a194.65,194.65,0,0,0-274.61,0L692.68,1130.5a194.66,194.66,0,0,0,0,274.62l41.94,41.94-78.54,78.55c-55.53,55.53-55.53,145.88,0,201.41L669,1739.89a142.16,142.16,0,0,0,112.11,41.19,142.16,142.16,0,0,0,41.19,112.11l12.87,12.87a142.16,142.16,0,0,0,112.11,41.19,142.16,142.16,0,0,0,41.19,112.11l12.87,12.87a142.16,142.16,0,0,0,112.11,41.19,142.16,142.16,0,0,0,41.19,112.11l12.87,12.87c55.53,55.53,145.88,55.53,201.41,0l78.55-78.55L1526,2238.4c55.53,55.53,145.88,55.53,201.41,0l12.87-12.87a142.16,142.16,0,0,0,41.19-112.11,142.16,142.16,0,0,0,112.11-41.19l12.87-12.87a142.16,142.16,0,0,0,41.19-112.11,142.16,142.16,0,0,0,112.11-41.19l12.87-12.87a142.16,142.16,0,0,0,41.19-112.11A142.16,142.16,0,0,0,2225.88,1739.89Zm-269-496.14-3.25-3.25-292-292,20-20a34,34,0,1,0-43.7-51.79l-.37-.37-24,24-48.12,48.11-261,261a74.44,74.44,0,0,1-105.18,0l-12.87-12.87a74.45,74.45,0,0,1,0-105.19l261-261,24.12-24.12,24-24,41.94-41.94a126.3,126.3,0,0,1,178.4,0L2154,1178.61a126.29,126.29,0,0,1,0,178.4L2112.1,1399Zm-557.6,868-78.54,78.55a74.47,74.47,0,0,1-105.19,0l-12.87-12.87a74.45,74.45,0,0,1,0-105.19l78.55-78.55,48.11-48.11,52.66-52.66a74.46,74.46,0,0,1,104.91.28l12.87,12.87a74.47,74.47,0,0,1,.28,104.91l-52.66,52.66Zm-349.9-87.62-12.87-12.87a74.45,74.45,0,0,1,0-105.19l78.55-78.55,48.11-48.11,52.66-52.66a74.46,74.46,0,0,1,104.91.28l12.87,12.87a74.47,74.47,0,0,1,.28,104.91l-52.66,52.66-1.27,1.27-45.58,45.58-1.27,1.26-78.54,78.55A74.47,74.47,0,0,1,1049.4,2024.12Zm-61-166.17a74.47,74.47,0,0,1-105.19,0l-12.87-12.87a74.45,74.45,0,0,1,0-105.19l78.54-78.55L997,1613.23l52.66-52.66a74.46,74.46,0,0,1,104.91.28l12.87,12.87a74.47,74.47,0,0,1,.28,104.91l-52.66,52.66L1067,1779.4ZM822.25,1691.78a74.47,74.47,0,0,1-105.19,0l-12.87-12.87a74.45,74.45,0,0,1,0-105.19l78.54-78.55,48.12-48.11,52.66-52.66a74.46,74.46,0,0,1,104.91.28l12.87,12.87a74.47,74.47,0,0,1,.28,104.91l-52.67,52.66-48.11,48.11Zm869.88,485.64-12.87,12.87a74.47,74.47,0,0,1-105.19,0l-78.54-78.55,52.66-52.66a141.78,141.78,0,0,0,40.91-89l.43-.43,24.06,24,78.54,78.55A74.45,74.45,0,0,1,1692.13,2177.42Zm47.24-722.64,158.44,158.45,24.06,24.06,24.06,24,78.54,78.55a74.45,74.45,0,0,1,0,105.19L2011.6,1858a74.47,74.47,0,0,1-105.19,0l-78.54-78.55-24.06-24.05-24-24.06-158.45-158.45A34,34,0,0,0,1573.2,1621l158.44,158.45,24.06,24.06,24.06,24,78.54,78.55a74.45,74.45,0,0,1,0,105.19l-12.87,12.87a74.47,74.47,0,0,1-105.19,0l-78.54-78.55-24.06-24-24.05-24.06L1455.14,1739c-.34-.34-.7-.68-1.05-1l-.54-.49c-.18-.16-.36-.32-.55-.46l-.45-.38c-.35-.3-.72-.58-1.1-.86s-.7-.52-1.06-.77-.84-.56-1.26-.83l-.05,0-1.18-.71s-.05,0-.07,0l-.93-.51-.14-.07-.55-.29,0,0c-.16-.08-.33-.17-.5-.24l-.5-.23c-.42-.19-.84-.38-1.27-.55s-1-.38-1.47-.55l-.59-.21-.59-.18c-.58-.19-1.16-.36-1.74-.5-.37-.1-.75-.18-1.12-.27l-.21,0-1.38-.27a.84.84,0,0,1-.18,0l-1.34-.19-.93-.1-.52,0-.72-.05a6.06,6.06,0,0,0-.73,0c-.49,0-1,0-1.47,0l-1.45,0h0l-.61,0-.62.05h0l-.46,0-.13,0h0l-1,.12c-.48.07-1,.14-1.43.23s-1.11.2-1.66.33l-.06,0c-.3.06-.61.14-.91.22l-.12,0h0c-.47.12-.94.26-1.4.41s-.87.27-1.29.42l-.59.22a.59.59,0,0,0-.14.06c-.3.1-.59.22-.88.34-.46.2-.91.39-1.37.61s-.93.45-1.4.69c-.32.17-.65.35-1,.54l-.48.26,0,0-1,.63-.09,0h0c-.34.22-.67.44-1,.68l-.19.13a142,142,0,0,0-29.73-43.48l-12.87-12.87a142.16,142.16,0,0,0-112.11-41.19,142.16,142.16,0,0,0-41.19-112.11l-12.87-12.87a142.16,142.16,0,0,0-112.11-41.19,142.16,142.16,0,0,0-41.19-112.11l-12.87-12.87a141.61,141.61,0,0,0-67.45-37.74,143.53,143.53,0,0,0-44.66-3.45,141.75,141.75,0,0,0-89,40.91L782.73,1399,740.79,1357a126.27,126.27,0,0,1,0-178.39L1179,740.44a126.27,126.27,0,0,1,178.39,0l41.94,41.94-261,261a141.73,141.73,0,0,0-41.18,89.3,143.21,143.21,0,0,0,3.45,44.66,141.46,141.46,0,0,0,37.73,67.45l12.87,12.87c55.53,55.53,145.89,55.53,201.42,0l261-261,292,291.95,3.25,3.26L2064,1447.06l24.06,24.06,24.06,24.05,78.54,78.55a74.45,74.45,0,0,1,0,105.19l-12.87,12.87a74.47,74.47,0,0,1-105.19,0L1994,1613.23l-24.06-24-24-24.06-158.45-158.45a34,34,0,1,0-48.11,48.11Z"/><path class="cls-1" d="M2233.27,1065.51,1828.61,660.85a100.51,100.51,0,0,1,0-142L2337.47,10a34,34,0,0,1,48.11,48.11L1876.72,567a32.38,32.38,0,0,0,0,45.74l404.66,404.66a32.36,32.36,0,0,0,45.74,0L2836,508.54a34,34,0,0,1,48.1,48.11l-508.86,508.86A100.49,100.49,0,0,1,2233.27,1065.51Z"/><path class="cls-1" d="M2509.3,884,2010.79,385.53a34,34,0,0,1,48.11-48.11l498.51,498.51A34,34,0,0,1,2509.3,884Z"/><circle class="cls-1" cx="2016.55" cy="572.23" r="34.02"/><path class="cls-1" d="M518.18,1064.16,10,555.94a34,34,0,1,1,48.11-48.1l508.21,508.21a32.3,32.3,0,0,0,45.63,0l404.14-404.14a32.3,32.3,0,0,0,0-45.63L507.84,58.07A34,34,0,1,1,555.94,10l508.22,508.22a100.41,100.41,0,0,1,0,141.83L660,1064.16A100.41,100.41,0,0,1,518.18,1064.16Z"/><path class="cls-1" d="M336.94,882.21a34,34,0,0,1,0-48.1L834.81,336.23a34,34,0,1,1,48.11,48.11L385,882.21A34,34,0,0,1,336.94,882.21Z"/><circle class="cls-1" cx="571.48" cy="876.43" r="33.97"/></g></g></svg>