<svg xmlns="http://www.w3.org/2000/svg" viewBox="0 0 552.47 552.47"><defs><style>.cls-1{fill:#70c8b9;}</style></defs><title>icon-6</title><g id="Layer_2" data-name="Layer 2"><g id="Layer_1-2" data-name="Layer 1"><circle class="cls-1" cx="276.24" cy="187.29" r="73.05"/><path class="cls-1" d="M167.34,363.32v27.21a29.71,29.71,0,0,0,29.71,29.71H355.42a29.71,29.71,0,0,0,29.71-29.71V363.32a89.19,89.19,0,0,0-89.19-89.19h-39.4A89.2,89.2,0,0,0,167.34,363.32Z"/><path class="cls-1" d="M519.83,254.75l-12.84.76,25.29,41.57,20.19-44.28-12.8.77A264.42,264.42,0,0,0,300.54,12.92l-.39,19.9C417.19,44.24,509.65,138.23,519.83,254.75Z"/><path class="cls-1" d="M254.74,32.6l.77,12.89,41.57-25.3L252.8,0l.76,12.77A264.43,264.43,0,0,0,13.28,248.55l19.93.39C46.08,133.5,139.35,42.69,254.74,32.6Z"/><path class="cls-1" d="M297.73,519.83,297,507l-41.57,25.29,44.28,20.19-.76-12.81A264.43,264.43,0,0,0,539.19,303.88l-19.93-.38C506.39,418.93,413.12,509.74,297.73,519.83Z"/><path class="cls-1" d="M32.64,297.73,45.49,297l-25.3-41.57L0,299.67l12.8-.76A264.47,264.47,0,0,0,245.2,538.82l.39-20C131.77,504.57,42.64,412,32.64,297.73Z"/></g></g></svg>