<svg xmlns="http://www.w3.org/2000/svg" viewBox="0 0 549.68 746.16"><defs><style>.cls-1,.cls-3{fill:none;stroke:#70c8b9;stroke-width:22.68px;}.cls-1{stroke-miterlimit:10;}.cls-2{fill:#70c8b9;}.cls-3{stroke-linecap:round;stroke-linejoin:round;}</style></defs><title>icon-5</title><g id="Layer_2" data-name="Layer 2"><g id="Layer_1-2" data-name="Layer 1"><path class="cls-1" d="M274.84,218.85h0a247.11,247.11,0,0,0-246.11,225L11.34,637a97.85,97.85,0,0,0,97.85,97.85H440.48A97.85,97.85,0,0,0,538.34,637L521,443.8A247.11,247.11,0,0,0,274.84,218.85Z"/><path class="cls-2" d="M259.2,633.24V595.7c-21.55-.37-43.85-7.06-56.86-16.35l8.92-24.9a99.06,99.06,0,0,0,53.52,16c26.38,0,44.22-15.24,44.22-36.42,0-20.45-14.49-33.08-42-44.23-37.91-14.87-61.33-32-61.33-64.3,0-30.85,21.93-54.26,56.12-59.84V328.11h23.05v36.05c22.3.74,37.53,6.69,48.31,13l-9.29,24.53A89.8,89.8,0,0,0,277,389.06c-28.62,0-39.39,17.1-39.39,32,0,19.33,13.75,29,46.08,42.37,38.28,15.61,57.61,34.94,57.61,68,0,29.37-20.44,56.87-58.72,63.19v38.65Z"/><path class="cls-3" d="M355.56,232.36,416,107c7.73-16,2.67-35.53-12.23-45.26-.45-.29-.92-.59-1.4-.88-18.75-11.41-47,5-47,5s-13-73-73-50-44,83-44,83l6,40"/><path class="cls-3" d="M236.4,69.26s-80.06-21.44-90.06,23.56,47.77,139.54,47.77,139.54"/></g></g></svg>