<svg xmlns="http://www.w3.org/2000/svg" viewBox="0 0 972.05 532.99"><defs><style>.cls-1{fill:#70c8b9;}</style></defs><title>illustration-3_1</title><g id="Layer_2" data-name="Layer 2"><g id="Layer_1-2" data-name="Layer 1"><polygon class="cls-1" points="0 300.37 0.29 300.27 0.29 300.08 0 300.37 0 300.37"/><polygon class="cls-1" points="16.99 458.68 17.18 460.62 17.08 458 16.99 458.68"/><polygon class="cls-1" points="7.76 437.62 8.64 437.33 7.57 437.33 7.76 437.62"/><polygon class="cls-1" points="7.76 432.57 9.61 434.22 9.22 432.38 7.76 432.57"/><polygon class="cls-1" points="14.07 452.27 15.53 452.57 14.17 451.98 14.07 452.27"/><polygon class="cls-1" points="21.16 460.24 21.45 460.14 20.77 460.14 21.16 460.24"/><polygon class="cls-1" points="16.7 456.25 16.79 455.96 16.6 455.38 16.7 456.25"/><path class="cls-1" d="M944.39,129.73v-.38a1.42,1.42,0,0,0-2.42-1l-.68.68a1.42,1.42,0,0,0,1,2.42,1.36,1.36,0,0,0,.56-.11l.68-.29A1.43,1.43,0,0,0,944.39,129.73Z"/><path class="cls-1" d="M946,131.47l-.29-.2a1.42,1.42,0,0,0-2.21,1.18v.29a1.4,1.4,0,0,0,.59,1.15,1.43,1.43,0,0,0,1.28.2l.29-.1a1.44,1.44,0,0,0,1-1.16A1.42,1.42,0,0,0,946,131.47Z"/><path class="cls-1" d="M366.34,467.71a1.37,1.37,0,0,0-.41-.74l-5.43-5.14a1.42,1.42,0,0,0-1.84-.1l-4.28,3.3a1.44,1.44,0,0,0-.38,1.8l2.72,5a1.41,1.41,0,0,0,1.06.74H358a1.45,1.45,0,0,0,1-.44l1.39-1.47,4.76,1a1.42,1.42,0,0,0,1.29-.39,1.41,1.41,0,0,0,.39-1.29Z"/><path class="cls-1" d="M380.9,477.57l-1.84-.29a1.41,1.41,0,0,0-1.55,1.89l1.46,3.89a1.43,1.43,0,0,0,1.32.92l.18,0a1.41,1.41,0,0,0,1.23-1.25l.39-3.59A1.42,1.42,0,0,0,380.9,477.57Z"/><path class="cls-1" d="M334.76,450.94a1.41,1.41,0,0,0-1.55-.38l-6.8,2.52a1.43,1.43,0,0,0-.83.84l-.68,1.84a1.43,1.43,0,0,0,.51,1.65l2.71,1.94a1.54,1.54,0,0,0,.47.22l3.79,1a1.45,1.45,0,0,0,.35,0,1.43,1.43,0,0,0,1.27-.77l2.71-5.34a1.4,1.4,0,0,0-.21-1.59Z"/><path class="cls-1" d="M319.84,457.24l-1.65.87a1.43,1.43,0,0,0-.64.69l-.58,1.36a1.4,1.4,0,0,0,.51,1.73,1.35,1.35,0,0,0,.79.25,1.38,1.38,0,0,0,1-.42l2.23-2.23a1.41,1.41,0,0,0-1.66-2.25Z"/><path class="cls-1" d="M416.73,502.17l-.08-2.09a1.41,1.41,0,0,0-.73-1.19L406,493.4l-2.94-2.18a1.42,1.42,0,0,0-1.2-.23l-2.62.68a1.41,1.41,0,0,0-1.05,1.52l.52,4.86-3.22,4a1.41,1.41,0,0,0-.2,1.46l3,6.9.85,7.07a1.45,1.45,0,0,0,.64,1l3.59,2.33a1.41,1.41,0,0,0,.77.22,1.63,1.63,0,0,0,.31,0,1.4,1.4,0,0,0,.89-.63l2.09-3.36,3.54-2.59,4.59-1.2a1.4,1.4,0,0,0,.57-.29l5.34-4.56a1.44,1.44,0,0,0,.49-1.08,1.4,1.4,0,0,0-.5-1.08Z"/><path class="cls-1" d="M380.32,472.19a1.38,1.38,0,0,0-1.11-.65l-5.15-.3a1.41,1.41,0,0,0-1.42,1l-.87,2.62a1.41,1.41,0,0,0,.2,1.29,1.43,1.43,0,0,0,1.17.58l4-.1,3.69.93a1.44,1.44,0,0,0,1.5-.55,1.42,1.42,0,0,0,0-1.59Z"/><path class="cls-1" d="M399.36,483a1.38,1.38,0,0,0-.5-1.27l-5.63-4.66a1.4,1.4,0,0,0-.54-.28l-5.92-1.55a1.36,1.36,0,0,0-1,.09l-1.65.77a1.41,1.41,0,0,0-.74,1.71l1.16,3.69a1.44,1.44,0,0,0,1.24,1l1.5.11.54,2.2a1.11,1.11,0,0,0,.19.43l-1-.86a1.45,1.45,0,0,0-1.09-.34,1.42,1.42,0,0,0-1,.57l-1.36,1.84a1.41,1.41,0,0,0,1.14,2.26l.29,0,2.81-.58a1.4,1.4,0,0,0,1.08-1,1.39,1.39,0,0,0-.36-1.33l.08,0,2.72,1.17a1.55,1.55,0,0,0,.56.11,1.38,1.38,0,0,0,.6-.13l6-2.82A1.39,1.39,0,0,0,399.36,483Z"/><path class="cls-1" d="M109,369.1l.19.09a1.43,1.43,0,0,0,.64.15,1.52,1.52,0,0,0,.59-.12,1.41,1.41,0,0,0,.78-1l.1-.39a1.42,1.42,0,0,0-2.38-1.34l-.29.29a1.43,1.43,0,0,0-.4,1.23A1.46,1.46,0,0,0,109,369.1Z"/><path class="cls-1" d="M176,387.15a1.47,1.47,0,0,0-1.19,1.45,1.36,1.36,0,0,0,.15.63l.09.2a1.42,1.42,0,0,0,2.62-1.08l-.1-.29A1.39,1.39,0,0,0,176,387.15Z"/><path class="cls-1" d="M286,435.3a1.4,1.4,0,0,0,.57.13,1.51,1.51,0,0,0,.81-.25,1.48,1.48,0,0,0,.67-1.25,1.42,1.42,0,0,0-1.41-1.42h-.2a1.43,1.43,0,0,0-1.38,1.1,1.41,1.41,0,0,0,.75,1.59Z"/><path class="cls-1" d="M236.49,422.25a1.44,1.44,0,0,0,.06-1.38l-.1-.19a1.41,1.41,0,0,0-2.68.63v.2a1.5,1.5,0,0,0,1.51,1.41A1.42,1.42,0,0,0,236.49,422.25Z"/><path class="cls-1" d="M206.07,415.45a1.42,1.42,0,0,0,.63-.15l.19-.1a1.41,1.41,0,0,0-.63-2.68h-.19a1.41,1.41,0,0,0-1.42,1.42V414a1.42,1.42,0,0,0,.67,1.21A1.44,1.44,0,0,0,206.07,415.45Z"/><path class="cls-1" d="M174.38,316.82l-2.62,1.55a1.41,1.41,0,0,0-.28,2.22l.68.68a1.38,1.38,0,0,0,1,.42h.05a1.44,1.44,0,0,0,1-.49l1.94-2.23a1.42,1.42,0,0,0-1.79-2.15Z"/><path class="cls-1" d="M184.23,322l.88.39a1.42,1.42,0,0,0,.57.12,1.36,1.36,0,0,0,.63-.15l.2-.09a1.42,1.42,0,0,0-.26-2.64l-1.07-.29a2.28,2.28,0,0,0-.26,0,1.42,1.42,0,0,0-.81-.73l-5.05-1.75a1.42,1.42,0,0,0-1.16,2.58l4.27,2.42a1.37,1.37,0,0,0,.7.19,1.45,1.45,0,0,0,.92-.34A1.25,1.25,0,0,0,184.23,322Z"/><path class="cls-1" d="M181.75,334.15a1.42,1.42,0,0,0-2.4,1.47l.68,1.46a1.38,1.38,0,0,0,1.63.77l.39-.09a1.43,1.43,0,0,0,1-.92,1.41,1.41,0,0,0-.22-1.33Z"/><path class="cls-1" d="M171.22,315.38a1.43,1.43,0,0,0-1.42-.58,1.41,1.41,0,0,0-1.12,1.05l-.19.78a1.36,1.36,0,0,0,.17,1.09,1.4,1.4,0,0,0,.89.63l.88.2.3,0a1.42,1.42,0,0,0,1.16-2.23Z"/><path class="cls-1" d="M197.08,338.41l1.75,1.26a1.41,1.41,0,0,0,.83.26,1.37,1.37,0,0,0,.93-.35,1.41,1.41,0,0,0,.32-1.73l-2-3.79a1.42,1.42,0,0,0-2.66.84l.29,2.52A1.48,1.48,0,0,0,197.08,338.41Z"/><path class="cls-1" d="M194.67,342a1.42,1.42,0,0,0-1.17,1.62l.39,2.52a1.42,1.42,0,0,0,1.4,1.2h.11a1.42,1.42,0,0,0,1.31-1.42v-.38a2.28,2.28,0,0,0,0-.26l-.39-2.13A1.41,1.41,0,0,0,194.67,342Z"/><path class="cls-1" d="M705.79,432.76l-.2.1a1.43,1.43,0,0,0-.78,1.26v.1a.76.76,0,0,0,0,.16,1.44,1.44,0,0,0-.89.52l-.68.88a1.42,1.42,0,0,0,2.12,1.87l.1-.1a1,1,0,0,0,.13-.15l.58-.78a1.37,1.37,0,0,0,.27-1,1.4,1.4,0,0,0,.76-.37l.2-.19a1.42,1.42,0,0,0-1.64-2.27Z"/><path class="cls-1" d="M708.69,428.37a1.39,1.39,0,0,0-1.11-.39l-.14-.07a1.37,1.37,0,0,0-1.17,0,1.39,1.39,0,0,0-.8.86l-.1.29a1.42,1.42,0,0,0,.49,1.57,1.35,1.35,0,0,0,.86.29,1.42,1.42,0,0,0,.45-.08,1.45,1.45,0,0,0,.58.14,1.49,1.49,0,0,0,.36-.05,1.47,1.47,0,0,0,1.09-1.42,1.41,1.41,0,0,0-.41-1Z"/><path class="cls-1" d="M843.58,513.46h-.2a.58.58,0,0,0-.14,0,1.44,1.44,0,0,0-1.08,0,1.42,1.42,0,0,0-.87,1.31v.1a1.51,1.51,0,0,0,1.51,1.42l.12,0a1.56,1.56,0,0,0,.56.12h0a1.51,1.51,0,0,0,1-.42l.09-.1a1.43,1.43,0,0,0,.3-1.55A1.42,1.42,0,0,0,843.58,513.46Z"/><path class="cls-1" d="M859.22,507.89a1.39,1.39,0,0,0-.73,0l0,0a1.81,1.81,0,0,0-3.36,1.26,1.33,1.33,0,0,0-.21.26,1.41,1.41,0,0,0-.06,1.38l.1.19a1.41,1.41,0,0,0,1.26.79,1.86,1.86,0,0,0,.33,0,1.48,1.48,0,0,0,.61-.34,1.25,1.25,0,0,0,.42.08,1.41,1.41,0,0,0,1.06-.48h0a1.46,1.46,0,0,0,.64-.15l.19-.1a1.41,1.41,0,0,0,.78-1.26v-.2A1.43,1.43,0,0,0,859.22,507.89Z"/><path class="cls-1" d="M828.53,514.82a1.43,1.43,0,0,0-1.42,1.42v.1a1.42,1.42,0,0,0,.87,1.3,1.35,1.35,0,0,0,.55.11,1.41,1.41,0,0,0,1-.41l.1-.09a1.42,1.42,0,0,0,.26-1.55A1.5,1.5,0,0,0,828.53,514.82Z"/><path class="cls-1" d="M704.19,423.59a1.37,1.37,0,0,0,.18.16,1.41,1.41,0,0,0,.79.24,1.39,1.39,0,0,0,.53-.1l.49-.19a1.42,1.42,0,0,0-.81-2.71l-.48.1a1.09,1.09,0,0,0-.43.18,1.12,1.12,0,0,0-.17-.2,1.43,1.43,0,0,0-1.88.11l-.39.39a1.42,1.42,0,0,0,0,2l.09.09a1.42,1.42,0,0,0,1,.42h.17A1.42,1.42,0,0,0,704.19,423.59Z"/><path class="cls-1" d="M972,41.66l-.29-1.75a1.43,1.43,0,0,0-1.23-1.17l-.18,0,0-.37a1.4,1.4,0,0,0-1.13-1.24,1.44,1.44,0,0,0-1.53.71l-.15.28-1.38-1.38a1.46,1.46,0,0,0-.72-.39l-4.56-.93-1.49-3v-2a1.42,1.42,0,0,0-.57-1.14A1.45,1.45,0,0,0,957.5,29l-2.76.83-2.2-.77v-3a1.49,1.49,0,0,0-.13-.59l-9.71-21a1.39,1.39,0,0,0-.63-.66L935,.16a1.41,1.41,0,0,0-1.56.17L926.06,6.5l-.81-.14-1.52-2.8A1.41,1.41,0,0,0,922,2.91l-2.53,1a1.43,1.43,0,0,0-.88,1L915,22.78a1.26,1.26,0,0,0,0,.58l1.24,5.74,1,11.48-2.73,8.85A1.44,1.44,0,0,0,915,51l1,.73-1.3,2.5L913.19,54a1.41,1.41,0,0,0-1.22.4l-.19.2a.1.1,0,0,0,0,.05l-.06.06-.72.88-.62-.12a1.42,1.42,0,0,0-1.11.24,1.44,1.44,0,0,0-.58,1L908,62.33l-5.8,2.12-5.21,2L885,70.81l-.68.2a.85.85,0,0,0-.24.09l-.5.25-20.19,6.76a1.54,1.54,0,0,0-.59.38l-4.07,4.37a1.34,1.34,0,0,0-.22.31L854,91.9a1.49,1.49,0,0,0-.15.8l.14,1.44-1.68,2.56a1.45,1.45,0,0,0-.79.12l-.39.2a1.35,1.35,0,0,0-.65.68L850,98.77a1.39,1.39,0,0,0,.09,1.3l-1.83,2.78a1.38,1.38,0,0,0-.15,1.23,1.39,1.39,0,0,0,.88.89l.72.24a1.27,1.27,0,0,0,.06.28,1.42,1.42,0,0,0,1.09.89l.59.1.23,0a1.09,1.09,0,0,0,.26,0l.77,5-3.74,4.94-12,7.26-1.77-.71a1.4,1.4,0,0,0-.73-.09l-9.51,1.36a1.4,1.4,0,0,0-.53.19l-8.83,5.34a1.42,1.42,0,0,0-.67,1.45l.49,2.82a1.38,1.38,0,0,0,.46.82l1.09,1,.94,1.25a1.52,1.52,0,0,0,.38.34l-1.43,7-6.71,7.83-1.53,1.17L806,155.17l-.2.17-4.7,4.8-.46.38-3.42,2.19-.1.07-7.47,5.72a1.75,1.75,0,0,0-.24.23l-4.51,5.5-3.24.5a1.36,1.36,0,0,0-.49.17l-6.27,3.57-3.17-1.9a1.44,1.44,0,0,0-.57-.2l-10-1.15,2.42-4.76a1.48,1.48,0,0,0,.15-.72l-.28-4.93,2.87-7.2,1.39.82a1.47,1.47,0,0,0,1.11.14,1.41,1.41,0,0,0,.86-.71l1.07-2a1.45,1.45,0,0,0,.16-.71l-.29-7.76a1.47,1.47,0,0,0-.17-.62L767.9,142l-3.85-10.2a1.48,1.48,0,0,0-.28-.45l-3.39-3.78a1.42,1.42,0,0,0-.68-.42l-1.75-.49a1.42,1.42,0,0,0-1.18.2l-6.31,4.37a1.39,1.39,0,0,0-.59.95,1.42,1.42,0,0,0,.28,1.09l.11.14-2.38,4.49-1.19-.21-.64-4.35.26-.09a1.43,1.43,0,0,0,.82-.78l2.82-6.5a1.4,1.4,0,0,0,.11-.53l.29-11.45a1.35,1.35,0,0,0-.12-.62l-4.37-9.7a1.42,1.42,0,0,0-1.05-.82l-9.11-1.55-.63-.94a1.38,1.38,0,0,0-.78-.58l-3.61-1,.19-.26a1.42,1.42,0,0,0-1.26-2.24l-2.52.2a.86.86,0,0,0-.23,0l.46-1.19.09.06a1.34,1.34,0,0,0,1,.2l6.8-1.06a1.43,1.43,0,0,0,1-2.14l-1.65-2.72a1.38,1.38,0,0,0-.5-.49l-.9-.52a1.41,1.41,0,0,0,0-1.53l-1-1.55a.9.9,0,0,0-.16-.18l.27-2.92a1.42,1.42,0,0,0-.63-1.32,1.46,1.46,0,0,0-1.47,0l-5.51,3.08-4.16-.52-1.2-2.86.34-.81a1.41,1.41,0,0,0-1.9-1.84l-7.13,3.38-4.49.27a1.39,1.39,0,0,0-.65.21L697,87.18a1.45,1.45,0,0,0-.53.57l-.47.94-4.14-1a1.43,1.43,0,0,0-.91.08l-2.47,1.09-5.93-5.14a1.41,1.41,0,0,0-.51-.28l-9.07-2.76.57-1.47,3.23-3.95L679,74.13a1.42,1.42,0,0,0-1.14-2.59l-2.24.87a1.6,1.6,0,0,0-.58.42l-.12.16-8.48,4.2a1.42,1.42,0,0,0-.79.37l-9.15,8.77-5,1.27a1.22,1.22,0,0,0-.5.24l-7.5,5.68-.26.17L639,93.1l-.19,0V93l.18,0a1.42,1.42,0,0,0,1.16-.6l1.45-2a1.41,1.41,0,0,0,.24-.73,1.47,1.47,0,0,0,.69-.7,1.44,1.44,0,0,0,0-1l.16-.06.59-.29a1.44,1.44,0,0,0,.75-1.57l-.29-1.36a1.42,1.42,0,0,0-1.39-1.12h0A1.41,1.41,0,0,0,641,84.74l-.3,1.65v0a1.42,1.42,0,0,0-.72.2l-.32.2-.15-.09a1.37,1.37,0,0,0-1.17,0l-.68.29h0a1.43,1.43,0,0,0-.39.11,1.46,1.46,0,0,0-.37-.69l-.2-.19a1.43,1.43,0,0,0-1.46-.34,1.41,1.41,0,0,0-.94,1.17l-.1.77a1.44,1.44,0,0,0,.14.77l-4.91,2.51-5.67.91,4.92-5.17.09-.1,8.51-10.91,3-2.14L646,70.93l.23-.14,6.11-4.56a1.42,1.42,0,0,0-1.11-2.53l-3.46.66-1.92-1.46a1.42,1.42,0,0,0-1.05-.28l-8.54,1.16-1-1.15a1.42,1.42,0,0,0-1.63-.4l-7.8,3.17L620,63l-1.62-2a1.41,1.41,0,0,0-1.19-.52l-5,.36L610.63,60a1.4,1.4,0,0,0,.29-1.3,1.43,1.43,0,0,0-.93-1l-4.57-1.45a1.25,1.25,0,0,0-.43-.07h-4.07a1.39,1.39,0,0,0-.57.12L595,58.66l-.61-.94a1.41,1.41,0,0,0-1-.63l-9.48-1.34-3.13-7.82-.36-2.46a1.44,1.44,0,0,0-1-1.16l-4.47-1.26a1.42,1.42,0,0,0-1.8,1.44l.31,6.09L563,51.35l-14.74.59-.9.09h-2l-29.28.58-20.46-.1-17.54-.39-20.51-.77-35-2.33-23.36-2.23-23.27-2.71-14.44-1.94L338.4,38.55l-11.52-1.93-25.79-4.95-2.71-.58-.25,0-8.45-1.71-4.15-1L284,28.09l-22.69-5.33-19.77-5L219.12,11.5l-6.7-1.65a1.41,1.41,0,0,0-1.73,1.63l1.1,6s0,0,0,0l-.39-.3a1.76,1.76,0,0,0-.95-.28,1.36,1.36,0,0,0-.36.06,1.42,1.42,0,0,0,.24-1.35s0,0-.05-.09a1.4,1.4,0,0,0,0-1.23l-.09-.2a1.41,1.41,0,0,0-1.27-.78h-.39a1.41,1.41,0,0,0-1.29.87,1.43,1.43,0,0,0-.78-.29,1.39,1.39,0,0,0-1.07.42l-.1.09-.19.24a1.4,1.4,0,0,0-1.57.62,1.42,1.42,0,0,0,.39,1.88l.68.49a1.83,1.83,0,0,0,.28.14,1.39,1.39,0,0,0,.26.87l.46.66-.36.68a1.39,1.39,0,0,0,0,1.24,1.37,1.37,0,0,0,1,.8l1.16.29a1.41,1.41,0,0,0,.35.05,1.43,1.43,0,0,0,.72-.23l.08.34-1.71,2.65A1.41,1.41,0,0,0,207,27a1.57,1.57,0,0,0,.25.14,1.72,1.72,0,0,0-.39,0,1.58,1.58,0,0,0-.38-.15l-2.13-.53-1.06-1.82a1.43,1.43,0,0,0-1.89-.54l-1,.56-8.14-3.54-7.72-6a1.42,1.42,0,0,0-2.2.64l-2.14,5.92a1.63,1.63,0,0,0-.08.37l-.19,2.53a1.37,1.37,0,0,0,.08.6l1.55,4.17-1,14-.71,2.06A1.43,1.43,0,0,0,181,47.19l.54.05-1.23.88a1.41,1.41,0,0,0-.6,1.26,1.44,1.44,0,0,0,.61,1.06,1.44,1.44,0,0,0-.94,1L177.72,57a1.44,1.44,0,0,0,.26,1.3L180.22,61a1.37,1.37,0,0,0,1.21.51l1.43-.11-1.61.48-1.44-.72a1.43,1.43,0,0,0-1.23,0,1.45,1.45,0,0,0-.78,1l-2,8.15-1.25,2.15a.76.76,0,0,0-.09.18l-6,14.66a.88.88,0,0,0-.07.23l-1.53,7h0a1.41,1.41,0,0,0-1.18.86l-5.58,13.27-3.57,5.4-1.14.82a1.41,1.41,0,0,0-.44.5l-3.49,6.8a1.31,1.31,0,0,0-.15.51l-.67,7L148.52,136a1.37,1.37,0,0,0,0,.75l1.23,5.68-.85,9.63-3.94,11-6.64,8.26a1.5,1.5,0,0,0-.32.83l-.19,4.27a1.41,1.41,0,0,0,.18.75l3.19,5.74,1.52,7.15-2.18,5.93a1.39,1.39,0,0,0-.09.57l.37,6-1,2.3a1.41,1.41,0,0,0,0,1.17l4,8.64c.05.09.1.18.16.27l2.23,2.9-.19,8.92a1.42,1.42,0,0,0,.44,1.06l5.66,5.38a1.42,1.42,0,0,0-.17.55l-.49,5.24a1.61,1.61,0,0,0,0,.31l1.36,10.39a1.45,1.45,0,0,0,.3.71l4.73,5.82-2.9,3.78a1.38,1.38,0,0,0-.29,1l.58,5.92a1.4,1.4,0,0,0,.22.63l3.8,5.88,6.74,18.49a1.39,1.39,0,0,0,.65.76l1.35.74-.63,12a1.35,1.35,0,0,0,.25.87l1.06,1.56a1.45,1.45,0,0,0,.69.53l14.24,5.12,4.09,4.36,1.46,2.92a1.43,1.43,0,0,0,.57.6l4.27,2.43a1.65,1.65,0,0,0,.44.16l3.86.72,1.67,4.58a1.37,1.37,0,0,0,.72.79l3.61,1.72,5.55,6.57,5.16,8.56-.37,7.92a1.38,1.38,0,0,0,.28.92l3,4a1.37,1.37,0,0,0,1,.55l37.58,3.68-1,1.91a1.42,1.42,0,0,0,.5,1.87l7.05,4.41,13.23,7.39,40.76,21.64a1.28,1.28,0,0,0,.49.16L352,405.54h.39l.21.05.22,0,13.39,1.26a1.42,1.42,0,0,0,1.53-1.15l1.16-6.28,1.57-1.25,26.31,2.35,10.16,10.15,6,7a1.7,1.7,0,0,0,.24.22l7.71,5.73,5.37,9.83,2.1,10.56a1.4,1.4,0,0,0,.61.91l4.41,2.9,3.47,3.85a1.3,1.3,0,0,0,.57.38l5,1.8,7.34,4.67.26.13,3.4,1.26a1.42,1.42,0,0,0,1.5-.33l4.66-4.65a1.44,1.44,0,0,0,.35-.61l1.42-4.82,2.13-4.16,6.48-2.58,2.35,1.17a1.56,1.56,0,0,0,.52.15l8.1.65,7.37,4.57a1.28,1.28,0,0,0,.49.19l3.34.62-.54,1a1.42,1.42,0,0,0,.48,1.86l2.82,1.82,2.43,2.93.52,3.21a1.41,1.41,0,0,0,.28.64L499.8,464l4.2,10.12a1.41,1.41,0,0,0,.4.54l4.09,3.44,3.18,5.24a1.16,1.16,0,0,0,.2.25l4.17,4.27a1.33,1.33,0,0,0,.59.36l1,.32,1.43,10.18a1.41,1.41,0,0,0,.71,1l3.88,2.14.15,2.71a1.38,1.38,0,0,0,.58,1.07,1.41,1.41,0,0,0,1.18.23l.29-.07,7.39,9a1.43,1.43,0,0,0,.8.49l3.75.82,4.85,2.89a1.43,1.43,0,0,0,.73.2h7.4l5.31,2.93a1.36,1.36,0,0,0,.68.18l.3,0,6.7-1.46a1.42,1.42,0,0,0,.67-2.42l-.76-.71a1.42,1.42,0,0,0,.58-1.53l-4.66-17.57a1.42,1.42,0,0,0-2.79.36V499l-.21-.32.55-3.81a1.26,1.26,0,0,0,.56.36,1.52,1.52,0,0,0,.42.06,1.39,1.39,0,0,0,1.29-.84l3.69-8.25a1.41,1.41,0,0,0-2.54-1.24l-.11.2-1.57-2.12,2.57.31a1.45,1.45,0,0,0,1.35-.64l.52-.79a1.44,1.44,0,0,0,.45.4,1.43,1.43,0,0,0,.66.16,1.41,1.41,0,0,0,1.13-.56l3.1-4.07a1.41,1.41,0,0,0,.08-1.58l1.68-.32a1.39,1.39,0,0,0,.51-.2l5.24-3.4a1.37,1.37,0,0,0,.62-1.2,1.4,1.4,0,0,0,.47-.24l2-1.65a1.43,1.43,0,0,0,.38-1.74c0-.05-.07-.08-.1-.13l6.12-1.35a1.3,1.3,0,0,0,.49-.2l7.37-4.95.11-.09,4.47-3.69a1.39,1.39,0,0,0,.47-.74l.59-2.35,2.45-2.55a1.42,1.42,0,0,0,.34-1.4l-1.37-4.39.18-1.8,1.93-.85-.21,2.79a1.42,1.42,0,0,0,.38,1.07,1.35,1.35,0,0,0,.32.26l-.49.41a1.42,1.42,0,0,0-.26,1.88,1.41,1.41,0,0,0,1.83.46l12.63-6.65,1.82-.08a1.43,1.43,0,0,0,1.32-1.11l.08-.34,11-1.24,9.15,2.54.2,0,6.7.88a1.42,1.42,0,0,0,1-.26l2.77-2a1.43,1.43,0,0,0,.8.71l4.28,1.45a1.4,1.4,0,0,0,1.57-.46l1.45-1.85a1.48,1.48,0,0,0,.13-.21l.38.59a1.43,1.43,0,0,0,1.66.57l1.56-.54,2.92,2-1,.34a1.42,1.42,0,0,0,.07,2.7l8.25,2.42a1.34,1.34,0,0,0,.4.06h1.14a1.39,1.39,0,0,0,1.38,1.65,1.33,1.33,0,0,0,.61-.14l1.84-.87a1.42,1.42,0,0,0,.74-1.75,1.49,1.49,0,0,0-.49-.64l.64-.78,2.62-1.41.23.33a1.47,1.47,0,0,0-.64.77l-.1.3a1.55,1.55,0,0,0,0,.21,1.41,1.41,0,0,0-1.34.61l-.2.29a1.42,1.42,0,0,0,1.18,2.21H682a1.43,1.43,0,0,0,.92-.34,1.34,1.34,0,0,0,.35,0,1.51,1.51,0,0,0,.58-.12l1.07-.49a.93.93,0,0,0,.26-.18l.21,0a1.43,1.43,0,0,0,1.17-.76l1.94-3.69a1.46,1.46,0,0,0,.16-.8l-.36-3.52,1.78.69-.22.14a1.42,1.42,0,0,0,.78,2.6h.49a1.41,1.41,0,0,0,1-.44l.17,0,5.81.73,2.13,1.73-.23,1.21a1.42,1.42,0,0,0,2.36,1.3l4.37-4.08a1.42,1.42,0,0,0,.16-1.9l-1.66-2.14a1.34,1.34,0,0,0-.77-.5l-7.09-1.8L695.49,437l0-.46,1.36.18a1.43,1.43,0,0,0,1.45-.79l2.33-4.75a1.5,1.5,0,0,0,.12-.86l.8-.26a1.43,1.43,0,0,0,1-1.35v-.18a1.42,1.42,0,0,0-.31-1.5l-.1-.09a1.43,1.43,0,0,0-1.14-.42,1.39,1.39,0,0,0-1,.63l-.39.58,0,0-.08.05a1.53,1.53,0,0,0-.18.18L698,426.26a1.47,1.47,0,0,0,.47-.52l.1-.2a1.43,1.43,0,0,0-.44-1.79,1.88,1.88,0,0,0-.38-.18l2-2.33,6.89-1.5L709,420h-.13a1.42,1.42,0,0,0,0,2.84l3.49.09h0a1.43,1.43,0,0,0,.64-.15l.19-.09s0,0,.07-.05l1.23.1h.11a1.45,1.45,0,0,0,1-.41l.1-.1a1.43,1.43,0,0,0,.3-1.55,1.4,1.4,0,0,0-1.15-.85l.6-.77,3.72.74a1.4,1.4,0,0,0,1.68-1.2l.45-3.31a1.57,1.57,0,0,0,.3.38l3.3,3a1.42,1.42,0,0,0,1.67.18l3-1.74,0,.05a1.43,1.43,0,0,0,1.94,1.67l3.11-1.36.11-.07a1.51,1.51,0,0,0,.48.09,1.32,1.32,0,0,0,.39-.06l5.82-1.64.11,0,4.75-1.75a1.39,1.39,0,0,0,.87-.93l3-1.08,2.05.31a1.46,1.46,0,0,0,0,1,1.44,1.44,0,0,0,.89.88l8.26,2.79,6.63,3.22,1.44,3.39a1.42,1.42,0,0,0,1.6.84l4.22-.93a1.43,1.43,0,0,0,.95,1.56l.29.1a1.41,1.41,0,0,0,.45.07,1.44,1.44,0,0,0,.87-.29l2.91-2.23a1.43,1.43,0,0,0,.29-2,1.39,1.39,0,0,0-.72-.5l.35-.28a1.41,1.41,0,0,0,1.25.79,1.63,1.63,0,0,0,.31,0l.88-.2a1.43,1.43,0,0,0,.69-.38l.29-.29a1.42,1.42,0,0,0,.18-1.79,1.47,1.47,0,0,0-.65-.51L789,413l3.68.16,17.73,13.39a1.93,1.93,0,0,0,0,.34l.1.49a1.41,1.41,0,0,0,.77,1,1.37,1.37,0,0,0,.62.14,1.43,1.43,0,0,0,.64-.15l.19-.09a1.41,1.41,0,0,0,.74-.94v0l1.19-.23a1.41,1.41,0,0,0,1.4,1.34h.2a1.57,1.57,0,0,0,.3,0l1.4,1.86a1.43,1.43,0,0,0-.29,1,1.35,1.35,0,0,0-.38.74,2.68,2.68,0,0,1,.57,2.71,3,3,0,0,1,1,1.53l.1.09s0,0,0,0a1.57,1.57,0,0,0,.24.32l.25,2.71-1.21,5.22a1.44,1.44,0,0,0,0,.62l.58,2.71a2,2,0,0,0,.12.34l3.4,6.79a1.41,1.41,0,0,0,1.78.69l.07,0-1,2.66a1.46,1.46,0,0,0-.09.62s0,0-.06,0a1.42,1.42,0,0,0,.08,1.92l.68.68a1.57,1.57,0,0,0,.32.24l1.07.58a1.17,1.17,0,0,0,.24.09l6,8.24a1.43,1.43,0,0,0,.72.51l.46,1.2,0,.06a1.3,1.3,0,0,0,0,.65l.29.88a1.45,1.45,0,0,0,.61.77l.49.29a1.49,1.49,0,0,0,.73.2,1.39,1.39,0,0,0,.75-.26l.59.86-.23.11a1.43,1.43,0,0,0-.78,1.37,1.41,1.41,0,0,0,1,1.24l1.16.39a1.44,1.44,0,0,0,1.63-.55,1.43,1.43,0,0,0-.07-1.67,1.41,1.41,0,0,0,.31-1.44l1.08.85,2.67,7.2a1.44,1.44,0,0,0,.59.72l2.36,1.44-.07,0a1.42,1.42,0,0,0,.15,2.45l.78.39a1.39,1.39,0,0,0,.63.15,1.41,1.41,0,0,0,.89-.32,1.33,1.33,0,0,0,.38-.5,1.41,1.41,0,0,0,.57.14,1.24,1.24,0,0,0,.33,0h0l.2,0a1.7,1.7,0,0,0,.32.1l.68.1h.2a1.37,1.37,0,0,0,.53-.12s0,0,0,0a1.39,1.39,0,0,0,1,.85l.48.1h0l4.89,6.23a1.52,1.52,0,0,0,.07.64,1.49,1.49,0,0,0-.87.8,1.43,1.43,0,0,0,.25,1.48l2.14,2.43a1.41,1.41,0,0,0,1.5.41l5.71-1.88.11.05h0l0,.05a1.43,1.43,0,0,0-.85,1.3v.19a1.42,1.42,0,0,0,.88,1.31h0a1.24,1.24,0,0,0,0,.33v.06a1.37,1.37,0,0,0-.23.47,1.46,1.46,0,0,0-.45.1,1.43,1.43,0,0,0-.88,1.31v.39a1.43,1.43,0,0,0,.88,1.31,1.45,1.45,0,0,0,.54.11,1.42,1.42,0,0,0,1-.42l.2-.19a1.46,1.46,0,0,0,.37-.77,1.43,1.43,0,0,0,1-.67l.29-.49a1.39,1.39,0,0,0,.15-1.05,1.52,1.52,0,0,0-.11-.7,1.46,1.46,0,0,0-.8-.76,1.37,1.37,0,0,0-.18-1.22,1.22,1.22,0,0,0,.33-.14,1.41,1.41,0,0,0,.49-.31l.09-.1a1.4,1.4,0,0,0,.42-1s0-.07,0-.11a1.4,1.4,0,0,0,1.32.94,1.45,1.45,0,0,0,1.19-.64l.19-.28a1.54,1.54,0,0,0,.54-.24l1.17-.87a1.41,1.41,0,0,0-.81-2.54l.9-3.16a1.47,1.47,0,0,0,.59.24h.22a1.4,1.4,0,0,0,1.38-1.14l.1-.48a1,1,0,0,0,0-.17l.1-1.26a1.41,1.41,0,0,0-1.18-1.5l.3-1a.51.51,0,0,0,.15-.07,1.42,1.42,0,0,0,.54-1.71l-.11-.25.25-.87a1.28,1.28,0,0,0,0-.52l-1.75-19a.77.77,0,0,0,0-.15l-.39-1.94a1.44,1.44,0,0,0-.17-.45L871,455a1.36,1.36,0,0,0,0-.29v0a.25.25,0,0,0,0-.08.65.65,0,0,0,0-.19.52.52,0,0,0,0-.11,1.34,1.34,0,0,0-.07-.18l0-.07,0-.05s0,0,0,0l-7.08-11.84a1.35,1.35,0,0,0-.48-.47l-3.87-7.55.18-3.51a1.44,1.44,0,0,0-.32-1l-12.47-15.17-2.92-4.62-3.92-7.94-2.7-6.74a1.33,1.33,0,0,0-.25-.41l-1.86-2.11-.42-2.7a1.37,1.37,0,0,0-.11-.36l-.54-9.67L835.1,378a1.42,1.42,0,0,0,.17-.92l0-.12a1.28,1.28,0,0,0,.91-1.35l-.1-2.92s0-.07,0-.11a1.46,1.46,0,0,0,.34-.1,1.39,1.39,0,0,0,.82-1.53l-.38-2.19.81-.89a1.41,1.41,0,0,0-.08-2l-.49-.45,2.57-3.15a1.35,1.35,0,0,0,.27-1l.88-4.06a1.3,1.3,0,0,0,0-.62l.39.29a1.43,1.43,0,0,0,1.73,0l2.33-1.85a1.41,1.41,0,0,0,0-2.2l-1.21-1,1.27-.07a1.42,1.42,0,0,0,.83-.34l7.57-6.4a1.42,1.42,0,0,0,.34-1.75l-.32-.59,3.72-2.86a1.45,1.45,0,0,0,.5-1.51l-.21-.73,2.51-1.57a1.44,1.44,0,0,0,.66-1.14l.18-4.63,5.12-9.5,3.32-4.22.1-.05a1.88,1.88,0,0,0,.24-.14l.23-.17,6.64-2.71a1.32,1.32,0,0,0,.29.42l.19.2a1.41,1.41,0,0,0,1,.41h.13a1.42,1.42,0,0,0,1-.61l.87-1.26a1.37,1.37,0,0,0,.24-.91,1.46,1.46,0,0,0,.31-.84l0-2.54A1.62,1.62,0,0,0,881,308l.29-1.55a1.41,1.41,0,0,0-.16-.95l2.68-4.85a1.42,1.42,0,0,0,.66-.33l2.23-2.14a1.39,1.39,0,0,0,.42-1l.75-.71,5.78-3.83.09,0,2.16-.72a.46.46,0,0,0,.14.07l1.41.37a1.44,1.44,0,0,0,.76.59,1.52,1.52,0,0,0,.42.06,1.42,1.42,0,0,0,1.31-.89l2.82-7a1.43,1.43,0,0,0-.19-1.37,1.6,1.6,0,0,0,.23,0,1.4,1.4,0,0,0,1.17-.62l1.26-1.85a1.41,1.41,0,0,0-1.17-2.21h-.68a1.43,1.43,0,0,0-1.35,1l-.58,1.84a1.42,1.42,0,0,0,.24,1.28,1.35,1.35,0,0,0-1.18.35l.1-.7a1.42,1.42,0,0,0-1-1.56,1.43,1.43,0,0,0-1.7.69l-.9,1.73-1.84.61.47-.34a1.38,1.38,0,0,0,.57-1,1.4,1.4,0,0,0-.37-1.09l-.8-.85,1.24-2.63a1.4,1.4,0,0,0,0-1.26l0-.09,2.91-.27a1.44,1.44,0,0,0,.71-.27l2.62-1.94a1.41,1.41,0,0,0,.42-.49l1.66-3.24,1.14-.32a1.39,1.39,0,0,0,1-1.44l-.28-5.23.78.78a1,1,0,0,0,.3.2l2,10.23a1.43,1.43,0,0,0,1.39,1.14h.18a1.41,1.41,0,0,0,1.24-1.48l-.29-5.15a1.53,1.53,0,0,0-.07-.36l-1.84-5.63a1.41,1.41,0,0,0-.84-.85l-9-13.21-.35-.69a1,1,0,0,0-.08-.14l-4-6.11a1.42,1.42,0,0,0-1.43-.63l-3.35.59A1.42,1.42,0,0,0,891,241l-2.41-3a1.57,1.57,0,0,0,1.17-.57,1.43,1.43,0,0,0,.19-1.34l-1.65-4.46a1.41,1.41,0,0,0-1.25-.93l-.72-3.66.59-1a1.38,1.38,0,0,0,.13-1.19,1.43,1.43,0,0,0-.84-.86l-1.55-.59a1.39,1.39,0,0,0,.05-1.08l-1.62-4.59.23.1,3.49,1.16a1.39,1.39,0,0,0,.78,0,1.42,1.42,0,0,0,.41,1,1.35,1.35,0,0,0,1,.42l2.63-.07,1.6,1.81-2.18,13.51a1.37,1.37,0,0,0,.08.72l.87,2.33a1.44,1.44,0,0,0,.91.86,1.2,1.2,0,0,0,0,.2v.48a1.44,1.44,0,0,0,.72,1.24,1.46,1.46,0,0,0,.7.18,1.49,1.49,0,0,0,.73-.2l.48-.29a1.42,1.42,0,0,0,.67-1.16s0,0,0,0l.29-.48a1.42,1.42,0,0,0,.19-.52l.19-1.26a1.38,1.38,0,0,0-.54-1.32h0a1.41,1.41,0,0,0,1.39-1.19l.1-.58a1.22,1.22,0,0,0,0-.33,1.24,1.24,0,0,0,.27-.49l.48-1.75a1.37,1.37,0,0,0-.13-1.07l.36-2a1.35,1.35,0,0,0-1.09-1.62l.85-2.66,0-.12.35-1.54a.91.91,0,0,0,.14.07,1.49,1.49,0,0,0,.36,0,1.41,1.41,0,0,0,1.33-.93l.39-1.07a.83.83,0,0,0,.06-.21l.48-2.4.09-.35,0-.16.68-5.24a1.38,1.38,0,0,0-.34-1.1,1.43,1.43,0,0,0,.06-.34v-.3a2,2,0,0,0,0-.34l-.11-.42a1.34,1.34,0,0,0,.24-.79v-.68a1.36,1.36,0,0,0-.15-.63l-2.46-6.47a1.33,1.33,0,0,0-.35-.53l-8.54-8.1,7,2.39L898,199a1.41,1.41,0,0,0,1,1.33,1.43,1.43,0,0,0,1.57-.54l2.62-3.69a1.43,1.43,0,0,0,.26-.71l.34-4.66,2.15-1.46a1.42,1.42,0,0,0,.61-1.19,1.33,1.33,0,0,0,.35-.36,1.4,1.4,0,0,0,.13-1.33l-.48-1.16a1.38,1.38,0,0,0-.93-.8l-.05-.2v0a1.4,1.4,0,0,0,1.11.55,1.58,1.58,0,0,0,.38,0,1.4,1.4,0,0,0,1-1.22l.3-2.92a1.4,1.4,0,0,0-.87-1.42V169a1.33,1.33,0,0,0,0-.28l-.68-3.4a1.37,1.37,0,0,0-1.42-1.14l-2.7.06.22-.9a1.08,1.08,0,0,0,.24.18,1.42,1.42,0,0,0,.72.2,1.34,1.34,0,0,0,.52-.1l4.17-1.65a1.25,1.25,0,0,0,.37-.22l5.59-4.52a1.54,1.54,0,0,0,.23.39,1.42,1.42,0,0,0,2,.12l4.86-4.27a2.62,2.62,0,0,0,.22-.25l.11-.08,10.28-9.71a1.41,1.41,0,0,0-1.83-2.15l-.84.64a1.39,1.39,0,0,0-2.68.2,1.38,1.38,0,0,0-.45-.72,1.43,1.43,0,0,0-1.86.06l-6.32,5.85-8.66,3.7,3.44-3.32a1,1,0,0,0,.16-.19L915,144.9a1.43,1.43,0,0,0,1.18,0l10.6-4.72a1.4,1.4,0,0,0,2,0l.78-.77a1.84,1.84,0,0,0,.17-.22l.25-.38.41-.18a1.55,1.55,0,0,0,.43-.29l.28-.28.12-.14h0l0-.07,4.55-3.65a1.45,1.45,0,0,0,.53-1.3l0-.11a1.42,1.42,0,0,0,.51-1.13v0l.63,0h0a1.44,1.44,0,0,0,.88.3,1.39,1.39,0,0,0,1.23-.78l.51-1,3.85-4.66,2.86.95a1.42,1.42,0,0,0,1.74-.76l.67-1.5,3.65-1.93.07.52a1.4,1.4,0,0,0,1.4,1.22h.15a1.43,1.43,0,0,0,1.27-1.51l-.1-1.36a1.87,1.87,0,0,0,0-.25l-.07-.28a1.37,1.37,0,0,0,.05-1.37L953,114a1.42,1.42,0,0,0-2.65.93l.5,2.42-2.16,1.64-2.5.2-6.63-7.08L937,108.25l2.44-2.58a1.45,1.45,0,0,0,.28-1.5,1.4,1.4,0,0,0-1.23-.89l-2.43-.14-1-2.35V99.63l0-.29,0,0a1.42,1.42,0,0,0,.63.15,1.42,1.42,0,0,0,1-2.42l-.1-.09a1.42,1.42,0,0,0-1-.42h-.18a1.18,1.18,0,0,0,0-.2l.18-5.06L937,89.76a1.44,1.44,0,0,0,.28-.63l1-5.14a1.43,1.43,0,0,0-.39-1.27l-.25-.25,1.18-3.64,2.33-1.08a.74.74,0,0,0,.13.12c.78.58,1.19.89,1.64.89a1.32,1.32,0,0,0,.62-.17,1.41,1.41,0,0,0,.74-.91,1.43,1.43,0,0,0-.19-1.14l-.09-.13a1.52,1.52,0,0,0,.39-.32L948,71.62a1.44,1.44,0,0,0,.3-.65l.58-3.3a1.39,1.39,0,0,0,.41.39,1.42,1.42,0,0,0,.72.2,1.51,1.51,0,0,0,.36-.06l1,.8a1.39,1.39,0,0,0,.89.32,1.29,1.29,0,0,0,.55-.11,1.39,1.39,0,0,0,.82-1,1.42,1.42,0,0,0,1.06.49,1.47,1.47,0,0,0,.54-.1,1.44,1.44,0,0,0,.87-1.5l-.13-.93a.5.5,0,0,0,.13,0l.39-.19a1.4,1.4,0,0,0,.68-.78,1.47,1.47,0,0,0,.5-.22,1.4,1.4,0,0,0,.48-1.64l-.29-.77c0-.05,0-.09-.07-.13s.08-.08.11-.13l1.46-2.14a1.43,1.43,0,0,0-.06-1.67,1.4,1.4,0,0,0-.56-.41l2.57-1a1.39,1.39,0,0,0,.9-1.17l.32-2.8.2,0a1.42,1.42,0,0,0,.58,0l.06,0,1.07.78a1.42,1.42,0,0,0,.83.27,1.42,1.42,0,0,0,1.16-2.23l-.53-.77,1.67-1.37h.32a1.41,1.41,0,0,0,1.38-1.09,1.39,1.39,0,0,0,0-.61l2.08-5a.8.8,0,0,0,0-.15A1.41,1.41,0,0,0,972,41.66ZM155.08,234.42a1.29,1.29,0,0,0,.16.09l.14,0,.16.93ZM211.45,19.9a1.38,1.38,0,0,0,.64-.51s0-.06,0-.08l0,.12-.56,1.05-.23-.11A1.27,1.27,0,0,0,211.45,19.9Zm-2.38-2.31a1.08,1.08,0,0,0-.24.28l-.27.44,0,0a1.92,1.92,0,0,0-.05-.41Zm-1.16,9.71a1.41,1.41,0,0,0,1-.42l.37-.38,1.29,6-.74,1a1.41,1.41,0,0,0-.34-1.45l-.87-.87a1.43,1.43,0,0,0-.49-.32,1.39,1.39,0,0,0,.7-1.33l-.09-1.07a1.41,1.41,0,0,0-.94-1.19Zm-4.16,17.4.39.08.11.1-1.16.81a1,1,0,0,0-.17-.1Zm-5.4,61.19A11.34,11.34,0,1,1,187,117.23,11.34,11.34,0,0,1,198.35,105.89Zm16.9,42.88a4.6,4.6,0,0,1-4.61,4.61H186.06a4.6,4.6,0,0,1-4.61-4.61v-4.22a13.84,13.84,0,0,1,13.84-13.84h6.12a13.84,13.84,0,0,1,13.84,13.84Zm21.1,137.12A11.34,11.34,0,1,1,225,297.23,11.34,11.34,0,0,1,236.35,285.89Zm16.9,42.88a4.6,4.6,0,0,1-4.61,4.61H224.06a4.6,4.6,0,0,1-4.61-4.61v-4.22a13.84,13.84,0,0,1,13.84-13.84h6.12a13.84,13.84,0,0,1,13.84,13.84Zm84.1,13.12A11.34,11.34,0,1,1,326,353.23,11.34,11.34,0,0,1,337.35,341.89Zm-35-162A11.34,11.34,0,1,1,291,191.23,11.34,11.34,0,0,1,302.35,179.89Zm-20-135A11.34,11.34,0,1,1,271,56.23,11.34,11.34,0,0,1,282.35,44.89ZM270.06,92.38a4.6,4.6,0,0,1-4.61-4.61V83.55a13.84,13.84,0,0,1,13.84-13.84h6.12a13.84,13.84,0,0,1,13.84,13.84v4.22a4.6,4.6,0,0,1-4.61,4.61Zm49.19,130.39a4.6,4.6,0,0,1-4.61,4.61H290.06a4.6,4.6,0,0,1-4.61-4.61v-4.22a13.84,13.84,0,0,1,13.84-13.84h6.12a13.84,13.84,0,0,1,13.84,13.84Zm35,162a4.6,4.6,0,0,1-4.61,4.61H325.06a4.6,4.6,0,0,1-4.61-4.61v-4.22a13.84,13.84,0,0,1,13.84-13.84h6.12a13.84,13.84,0,0,1,13.84,13.84Zm99.44-99.54a11.34,11.34,0,1,1-11.34-11.34A11.34,11.34,0,0,1,453.69,285.23ZM425.35,95.89A11.34,11.34,0,1,1,414,107.23,11.34,11.34,0,0,1,425.35,95.89Zm-12.29,47.49a4.6,4.6,0,0,1-4.61-4.61v-4.22a13.84,13.84,0,0,1,13.84-13.84h6.12a13.84,13.84,0,0,1,13.84,13.84v4.22a4.6,4.6,0,0,1-4.61,4.61Zm46.19,173.39a4.6,4.6,0,0,1-4.61,4.61H430.06a4.6,4.6,0,0,1-4.61-4.61v-4.22a13.84,13.84,0,0,1,13.84-13.84h6.12a13.84,13.84,0,0,1,13.84,13.84Zm79.1,90.12A11.34,11.34,0,1,1,527,418.23,11.34,11.34,0,0,1,538.35,406.89Zm16.9,42.88a4.6,4.6,0,0,1-4.61,4.61H526.06a4.6,4.6,0,0,1-4.61-4.61v-4.22a13.84,13.84,0,0,1,13.84-13.84h6.12a13.84,13.84,0,0,1,13.84,13.84Zm38.1-380.88A11.34,11.34,0,1,1,582,80.23,11.34,11.34,0,0,1,593.35,68.89Zm-18,112A11.34,11.34,0,1,1,564,192.23,11.34,11.34,0,0,1,575.35,180.89Zm1.2,286.57-.48.56-.61-.64,1.1.07Zm15.7-243.69a4.6,4.6,0,0,1-4.61,4.61H563.06a4.6,4.6,0,0,1-4.61-4.61v-4.22a13.84,13.84,0,0,1,13.84-13.84h6.12a13.84,13.84,0,0,1,13.84,13.84Zm18-112a4.6,4.6,0,0,1-4.61,4.61H581.06a4.6,4.6,0,0,1-4.61-4.61v-4.22a13.84,13.84,0,0,1,13.84-13.84h6.12a13.84,13.84,0,0,1,13.84,13.84Zm130.1,42.12A11.34,11.34,0,1,1,729,165.23,11.34,11.34,0,0,1,740.35,153.89Zm-55.13-27.43,1.22-1.61-1.16,3-.44.25Zm2.13,123.43A11.34,11.34,0,1,1,676,261.23,11.34,11.34,0,0,1,687.35,249.89Zm-26,117A11.34,11.34,0,1,1,650,378.23,11.34,11.34,0,0,1,661.35,366.89Zm-8.25,71.68-1.06.89a.62.62,0,0,0-.11-.17l-.62-.82,2.26-.71v0a1.31,1.31,0,0,0,.06.52A1.4,1.4,0,0,0,653.1,438.57Zm3.68.36.76-.18.3.47Zm21.47-29.16a4.6,4.6,0,0,1-4.61,4.61H649.06a4.6,4.6,0,0,1-4.61-4.61v-4.22a13.84,13.84,0,0,1,13.84-13.84h6.12a13.84,13.84,0,0,1,13.84,13.84ZM687,426.52l-5.18.33-.36-.27,1.82-3.19,2.25-.07,4.11,1.34Zm8-.7-1.21,2.92-.62-.11,1.53-2.5a1.43,1.43,0,0,0,.21-.63l.25,0A1.35,1.35,0,0,0,695,425.82Zm9.23-133a4.6,4.6,0,0,1-4.61,4.61H675.06a4.6,4.6,0,0,1-4.61-4.61v-4.22a13.84,13.84,0,0,1,13.84-13.84h6.12a13.84,13.84,0,0,1,13.84,13.84Zm12.91-175.58v-.86l.09.79Zm2.53-14.55a1.37,1.37,0,0,0-.31,1l.33,3.8L717,110.89a2,2,0,0,0-.24.45,1.37,1.37,0,0,0-.67-.36,1.41,1.41,0,0,0-1.59.77l-2.68,5.65-3,4.77-1.94,1.49a1.41,1.41,0,0,0-.52,1.4l1,5L706,135.32a1.35,1.35,0,0,0,0,.49l.74,6.62-.89,3.13a1.39,1.39,0,0,0,.1,1l6.89,13.2.8,4.74-.83,9.1-4.4,10.08-.24.16-.1.08-2.39,1.93-3.3,1.52-.81-.06-1.29-.64-1.18-1.27-2.43-5.51a1.42,1.42,0,0,0-.28-.41l-1.73-1.81-.79-5.08v-.08a1.64,1.64,0,0,0,0-.38l-.35-1.27v-4.38a1.34,1.34,0,0,0-.17-.67l-2.48-4.61-.63-5.63,1.22-6.59a1.31,1.31,0,0,0,0-.44l-.63-4.9,2.21-6.19a1.41,1.41,0,0,0-.23-1.37l-.54-.66.17-5.32,1.22-4.39a1.44,1.44,0,0,0-.33-1.35l-.29-.3,3-9.26a1.42,1.42,0,0,0-2.45-1.33l-2.43,3a1.26,1.26,0,0,0-.24.44l-1.46,4.37a1.38,1.38,0,0,0,0,.83l.16.57-2.07.72h0l.85-1.11a1.52,1.52,0,0,0,.28-.71l.16-1.61a1.92,1.92,0,0,0,.09-.32l3.6-10.42,4.19-2.94a1.21,1.21,0,0,0,.24-.21l1.52-1.7.1.59a1.42,1.42,0,0,0,2.59.54l3.34-5.14,8.21-3.14a1.43,1.43,0,0,0,.76-.69l.23-.46,7.49.91,2.17,1.12Zm37.56,94.13a4.6,4.6,0,0,1-4.61,4.61H728.06a4.6,4.6,0,0,1-4.61-4.61v-4.22a13.84,13.84,0,0,1,13.84-13.84h6.12a13.84,13.84,0,0,1,13.84,13.84Zm40.1,157.12A11.34,11.34,0,1,1,786,365.23,11.34,11.34,0,0,1,797.35,353.89Zm16.9,42.88a4.6,4.6,0,0,1-4.61,4.61H785.06a4.6,4.6,0,0,1-4.61-4.61v-4.22a13.84,13.84,0,0,1,13.84-13.84h6.12a13.84,13.84,0,0,1,13.84,13.84ZM825,453.83l-1-3.38,1.21,0,.22,2.24Zm11.31,14.61v.11l-.08-.1Zm57.9-206.24.08-.67,3.5-.84a1.42,1.42,0,0,0,1-.87l.66-1.74L901,259a1.41,1.41,0,0,0,1.2.08l.62,1.06c0,.05.07.08.09.12a1.37,1.37,0,0,0-1.08.35l-1.26,1.14a1.39,1.39,0,0,0-.87-.6l-1.26-.29a1.4,1.4,0,0,0-.86.07l-3.41,1.41A.59.59,0,0,0,894.19,262.2Zm-1.13,13.64.5.25-1-.16Zm2.26-39.91a.84.84,0,0,0,.18.15,1.47,1.47,0,0,0-.21,0Zm-17-106A11.34,11.34,0,1,1,867,141.23,11.34,11.34,0,0,1,878.35,129.89Zm-33,114A11.34,11.34,0,1,1,834,255.23,11.34,11.34,0,0,1,845.35,243.89Zm16.9,42.88a4.6,4.6,0,0,1-4.61,4.61H833.06a4.6,4.6,0,0,1-4.61-4.61v-4.22a13.84,13.84,0,0,1,13.84-13.84h6.12a13.84,13.84,0,0,1,13.84,13.84Zm17.83-72.84-1.68-6.26.46-3.7c0-.06,0-.12,0-.17l.07.13a1.46,1.46,0,0,0,1.29.7,1.41,1.41,0,0,0,.77-.27l.13.82-1.5,3.6a1.5,1.5,0,0,0,0,1.12,1.47,1.47,0,0,0,.81.76l1,.35-.24.08a1.41,1.41,0,0,0-.8,2l1.3,2.43Zm15.17-41.16a4.6,4.6,0,0,1-4.61,4.61H866.06a4.6,4.6,0,0,1-4.61-4.61v-4.22a13.84,13.84,0,0,1,13.84-13.84h6.12a13.84,13.84,0,0,1,13.84,13.84Zm31.46-29.58s0,0,0,.06,0,0,0,0Zm24.52-79a1.27,1.27,0,0,0-.15.49l-.57-.13,0-.36.71,0Z"/><path class="cls-1" d="M716.34,99.79A1.42,1.42,0,0,0,715,98.71h-.78a1.42,1.42,0,0,0-1.39,1.13,1.44,1.44,0,0,0,.81,1.59l.88.38a1.28,1.28,0,0,0,.57.13,1.43,1.43,0,0,0,1.38-1.76Z"/><path class="cls-1" d="M656.77,68.73a1.4,1.4,0,0,0,.74.2,1.42,1.42,0,0,0,.83-.27l6.12-4.46a1.42,1.42,0,0,0,.38-.43l2-3.5a1.41,1.41,0,0,0-2-1.88l-7.77,5.34a1.43,1.43,0,0,0-.6,1l-.39,2.62A1.43,1.43,0,0,0,656.77,68.73Z"/><path class="cls-1" d="M710.37,113.65a1.41,1.41,0,0,0-2.49.46l-.2.68a1.44,1.44,0,0,0,.08,1,1.41,1.41,0,0,0-.8,1.13l-.1,1a1.42,1.42,0,0,0,1.41,1.56,1.42,1.42,0,0,0,.45-.08l.58-.19a1.45,1.45,0,0,0,.89-.87,1.47,1.47,0,0,0,0-.83l.18,0a1.43,1.43,0,0,0,1.14-2.27Z"/><path class="cls-1" d="M711.35,107.13a1.41,1.41,0,0,0-1.52-.24,1.43,1.43,0,0,0-.84,1.3v.19a1.4,1.4,0,0,0,.6,1.16l1,.68a1.44,1.44,0,0,0,.81.26,1.42,1.42,0,0,0,1-2.47Z"/><path class="cls-1" d="M153.53,487.79a1.44,1.44,0,0,0,.25,1.57l3.21,3.39a1.4,1.4,0,0,0,1,.45l.23,0a1.42,1.42,0,0,0,1.06-.81l1.45-3.21a1.41,1.41,0,0,0-1.23-2l-4.66-.19A1.39,1.39,0,0,0,153.53,487.79Z"/><path class="cls-1" d="M150.49,460.7a1.43,1.43,0,0,0-2.29.72l-.77,2.91a1.43,1.43,0,0,0,.18,1.14,1.4,1.4,0,0,0,1,.63l1.92.31.38.5.13.15.19.19a1.32,1.32,0,0,0,.45.3l0,0a1.51,1.51,0,0,0,.06.59l.32.85.1.17c0,.06.07.13.11.18a1.14,1.14,0,0,0,.16.15,1,1,0,0,0,.15.14l.19.1a1.63,1.63,0,0,0,.19.09l.27,0,.15,0a1.41,1.41,0,0,0,.45-.07l0,0h0l.16-.08a1.35,1.35,0,0,0,.4.08,1.51,1.51,0,0,0,.58-.12l1.94-.87a1.42,1.42,0,0,0,.82-1.1,1.4,1.4,0,0,0-.49-1.28Z"/><path class="cls-1" d="M100.41,523.22A1.43,1.43,0,0,0,99.09,522l-1-.06a1.42,1.42,0,0,0-.45-1l-1.07-1A1.41,1.41,0,0,0,95,519.7a1.43,1.43,0,0,0-.84,1.3v0a.43.43,0,0,0,0-.07c0-.05,0-.08,0-.13l.1-.58a1.41,1.41,0,0,0-2-1.5l-.39.19a1.44,1.44,0,0,0-.75.94,1.46,1.46,0,0,0,0,.51,1.44,1.44,0,0,0-.46.82,1.43,1.43,0,0,0-1,0l-.48.2a1.42,1.42,0,0,0,.18,2.69l.39.09a1.4,1.4,0,0,0,.34,0,1.43,1.43,0,0,0,1.35-1l.07-.22a1.41,1.41,0,0,0,.53.12,1.07,1.07,0,0,0,.25,0,1.41,1.41,0,0,0,.72.22,1.47,1.47,0,0,0,.54-.1,1.44,1.44,0,0,0,.66-.58v.63a1.42,1.42,0,0,0,1,1.34,1.53,1.53,0,0,0,.47.07,1.46,1.46,0,0,0,.89-.31,1.38,1.38,0,0,0,.28.19l1.75.78a1.42,1.42,0,0,0,.57.12,1.44,1.44,0,0,0,.86-.29,1.4,1.4,0,0,0,.54-1.33Z"/><path class="cls-1" d="M137.21,530a1.41,1.41,0,0,0-1.54.3l-.1.1a1.4,1.4,0,0,0-.31,1.54,1.42,1.42,0,0,0,1.31.88h.09a1.5,1.5,0,0,0,1.42-1.51A1.41,1.41,0,0,0,137.21,530Z"/><path class="cls-1" d="M141.5,509a1.4,1.4,0,0,0-.15-1.83l-.19-.19a1.29,1.29,0,0,0-.5-.33l-.78-.29a1.42,1.42,0,0,0-1.13,2.6l1,.48a1.42,1.42,0,0,0,.63.15A1.4,1.4,0,0,0,141.5,509Z"/><path class="cls-1" d="M133.36,530.06a1.39,1.39,0,0,0-.45.09l.15-.46a1.45,1.45,0,0,0-.24-1.27,1.53,1.53,0,0,0-1.2-.59,1.39,1.39,0,0,0-.94.36,1.31,1.31,0,0,0-.62-.17h-.19a1.42,1.42,0,0,0-1.27.79,1.12,1.12,0,0,0-.1.31,1.38,1.38,0,0,0-.44,1v.39a1.43,1.43,0,0,0,.88,1.31,1.45,1.45,0,0,0,.54.11,1.42,1.42,0,0,0,1-.42l.2-.19a1.11,1.11,0,0,0,.17-.27,1.44,1.44,0,0,0,.33.16,2,2,0,0,0,.34,0,1.41,1.41,0,0,0,.41-.07,1.38,1.38,0,0,0,1.34,1.81,1.5,1.5,0,0,0,.64-.15l.19-.1a1.38,1.38,0,0,0,.69-1.59A1.47,1.47,0,0,0,133.36,530.06Z"/><path class="cls-1" d="M124.43,528.61h-.19a1.39,1.39,0,0,0-1.2.67,1.41,1.41,0,0,0-.07,1.38l.2.38a1.41,1.41,0,0,0,1.26.79,1.24,1.24,0,0,0,.33,0,1.41,1.41,0,0,0,1.09-1.38V530A1.41,1.41,0,0,0,124.43,528.61Z"/><path class="cls-1" d="M112.58,524.53l-3.78.29a1.91,1.91,0,0,0-.47.12l-.18.08a1.41,1.41,0,0,0-.75-1.51l-.19-.09a1.37,1.37,0,0,0-1.72.37,1.39,1.39,0,0,0-1-.61l-.78-.1a1.41,1.41,0,0,0-1.38,2.14,1.47,1.47,0,0,0,.13.68l.2.39a1.4,1.4,0,0,0,1.26.78,1.42,1.42,0,0,1,.88,0H105l.24,0a1.07,1.07,0,0,0,.25,0,1.42,1.42,0,0,0,1.11-.54,1.37,1.37,0,0,0,0,.49,1.42,1.42,0,0,0,1.36,1h.21l4.65-.68a1.42,1.42,0,0,0-.31-2.82Z"/><path class="cls-1" d="M293.67,515l-1.94-4.95a1.43,1.43,0,0,0-1.17-.89l-7-.72-11.11-10.64-.14-.12-6.21-4.56a1.43,1.43,0,0,0-1.83.13l-4.34,4.26h-1.82l-6.15-4a1.36,1.36,0,0,0-.71-.23L246,493l-8.94-56.42a1.62,1.62,0,0,0-.17-.48l-1.3-2.26a1.4,1.4,0,0,0-.54-1.28l-.39-.29a1.38,1.38,0,0,0-.29-.17l-.68-.29a1.44,1.44,0,0,0-.74-.08l-1.8-1.09a1.4,1.4,0,0,0-1-.18l-5.26,1-3.87-.8-3.4-1.33a1.53,1.53,0,0,0-.43-.45l-.78-.48a1.38,1.38,0,0,0-1.6.1l-4.54.3-1-1.91a1.42,1.42,0,0,0-1-.73l-3.81-.57-.45-1a1.44,1.44,0,0,0-1.09-.8,1.38,1.38,0,0,0-1.24.45l-.17-1.27a1.42,1.42,0,0,0-2.31-.91L195.73,425l-1.71-.48a1.41,1.41,0,0,0-1.08.13l-4.89,2.78-.35-.22a1.42,1.42,0,0,0-1.82.26l0,0a1.36,1.36,0,0,0-.71.13l-.38.19a1.48,1.48,0,0,0-.51.42l-.29.38s0,0-.06.05l-.19.19a1.41,1.41,0,0,0-.27.37l0,.08-.06,0-.49.39a1.43,1.43,0,0,0-.38.47l-.39.78a1.39,1.39,0,0,0-.11.87l-2.19,2.46-6.06,1.36a1.42,1.42,0,0,0-1.09,1.61l.59,3.49a1.37,1.37,0,0,0,.25.61l2.91,4a1.37,1.37,0,0,0,.16.18l4.73,4.56-.17.42a1.3,1.3,0,0,0-.57.27,1.41,1.41,0,0,0-.41,1.69l.57,1.28-4.25-3.88a1.42,1.42,0,0,0-1.2-.35l-2.8.5a1.35,1.35,0,0,0-.82-.1l-.49.09a1.33,1.33,0,0,0-.47.21l-.4.08-.3.1a1.49,1.49,0,0,0-.6.21l-.29.2a1,1,0,0,0-.25.24l-.74.28a1.39,1.39,0,0,0-.9,0l-1.17.39a1.39,1.39,0,0,0-.68.51,1.5,1.5,0,0,0-.52-.1h-.1a1.36,1.36,0,0,0-.63.15l-.2.1a1.36,1.36,0,0,0-.69.8h0l-.19.1a.93.93,0,0,0,.12-.29,1.39,1.39,0,0,0-.74-1.59l-.19-.1a1.42,1.42,0,0,0-1.64,2.27l.09.09a1.66,1.66,0,0,0,1.1.42,1.45,1.45,0,0,0,.68-.19,1,1,0,0,0-.11.28,1.41,1.41,0,0,0,.32,1.28l2.92,3.26-.34,1.62a1.42,1.42,0,0,0,.29,1.19l2.24,2.72a1.39,1.39,0,0,0,.57.42l7.38,2.91a1.42,1.42,0,0,0,1.16-.05l4-2,.09.21-1.09,4.57h-2.37a1.46,1.46,0,0,0-1.2-.48l-1.06.1A1.42,1.42,0,0,0,173.9,471a1.92,1.92,0,0,0,0,.24l-1.61.71a1.44,1.44,0,0,0-.67-.86,1.39,1.39,0,0,0-1.21-.08l-1.15.45a1.41,1.41,0,0,0-1.37.35l-.2.19a1.7,1.7,0,0,0-.1.14,1.4,1.4,0,0,0-.68.68l-1.11,2.48-2.38,1.81a1.4,1.4,0,0,0-1.65.23l-.09.1a1.42,1.42,0,0,0-.4,1.22l-.06.3a1.45,1.45,0,0,0-.16.65v5a1.4,1.4,0,0,0,.85,1.29l.58.26-1,3a1.43,1.43,0,0,0,.42,1.51l5.83,5.05a1.41,1.41,0,0,0,1.47.23l1.43-.6-.47,3.78a1.42,1.42,0,0,0,.29,1.05l1.07,1.36a1.4,1.4,0,0,0,.81.51l3.55.77a1.42,1.42,0,0,0-.49,1.05V504a1.37,1.37,0,0,0,.07.45l.1.29a1.4,1.4,0,0,0,1.29,1,1.57,1.57,0,0,0,1.12.49,1.42,1.42,0,0,0,1.31-.87,1.34,1.34,0,0,0,.1-.43l2.6.19,1.47,1.55a1.42,1.42,0,0,0,1.42.38l.29-.08L184,511.26l-11.4,7.38a2.11,2.11,0,0,0-.23.19l-.9.9-1.37-.54a1.53,1.53,0,0,0-.85-.06l-3.59.88a1.34,1.34,0,0,0-.44.19l-1.94,1.28-.2.06a.47.47,0,0,1-.06-.09l-.19-.19a1.4,1.4,0,0,0-1.55-.26,1.49,1.49,0,0,0-.88,1.36,1.39,1.39,0,0,0,.29.83l-.31.21a1.42,1.42,0,0,0-1.55-.78l-2.43.48a1.45,1.45,0,0,0-.85.53l-2.14,2.82a1.34,1.34,0,0,0-.13.27l-.34.08a1.47,1.47,0,0,0-.5.25l-.15,0h0a1.4,1.4,0,0,0-.76-1.16l-.39-.19a1.41,1.41,0,0,0-1.38.06,2.43,2.43,0,0,0-.25.2l-.17,0h-1.07a1.42,1.42,0,0,0-1.15.62l-1.14-.36a1.41,1.41,0,0,0-1.36.29l-3.4,3a1.42,1.42,0,0,0,.94,2.48h.11l2.43-.19a1.44,1.44,0,0,0,.77-.3l2.14-1.7.27.06h.1a1.42,1.42,0,0,0,1.26-.76l.48.12a1,1,0,0,0,.18.1,1.12,1.12,0,0,0,.21.23l.48.39a1.4,1.4,0,0,0,.89.31,1.43,1.43,0,0,0,.69-.21l.64.1H153a1.37,1.37,0,0,0,1-.41,1.35,1.35,0,0,0,1.18-1.1.72.72,0,0,0,.23-.12l4.22-3a1.4,1.4,0,0,0,1.26.79h0a.65.65,0,0,0,.05.2.82.82,0,1,1-.39,1.53,1.46,1.46,0,0,0-.13.82,1.4,1.4,0,0,0,.12.75l.2.39a1.35,1.35,0,0,0,1.23.74l.21,0a2,2,0,0,0,.35.19l.29.09a1.42,1.42,0,0,0,.45.08,1.38,1.38,0,0,0,1-.42,1.5,1.5,0,0,0,.62-1.2,1.41,1.41,0,0,0-.78-1.26l-.2-.1-.15,0a1.51,1.51,0,0,0-.62-.43l-.76-.25a1.35,1.35,0,0,0,.88-.41,1.39,1.39,0,0,0,1.12,1.17,1.1,1.1,0,0,0,.26,0A1.41,1.41,0,0,0,166,527l.07-.29.08.08a1.41,1.41,0,0,0,1,.41,1.45,1.45,0,0,0,.54-.11,1.3,1.3,0,0,0,.48-.35,1.41,1.41,0,0,0,.63.17,1.43,1.43,0,0,0,.79-.24,1.42,1.42,0,0,0,.62-1,1.35,1.35,0,0,0,.29,0l1.15-.38a1.36,1.36,0,0,0,.26.45,1.44,1.44,0,0,0,.34.27l0,0-.58,1.56a1.41,1.41,0,0,0,.63,1.73,1.45,1.45,0,0,0,.69.18,1.5,1.5,0,0,0,.84-.27,1.36,1.36,0,0,0,.26.68l.29.38a1.42,1.42,0,0,0,1.88.36,1.36,1.36,0,0,0,.41-.38,1.42,1.42,0,0,0,1.29-1.06l.1-.39a3.1,3.1,0,0,0-.9-2.26,1.39,1.39,0,0,0-.73-.66l-.48-.2a1.89,1.89,0,0,0-.23-.05,2.26,2.26,0,0,0-.11-.22,1.43,1.43,0,0,0-.85-.56,1.06,1.06,0,0,0,0-.61l1.27-.41a1.41,1.41,0,0,0,.36.37l.29.19a1.43,1.43,0,0,0,.79.24,1.39,1.39,0,0,0,1.09-.52,1.38,1.38,0,0,0,.27-1.2l.6-.19a1.43,1.43,0,0,0,.94.88,1.41,1.41,0,0,0,1.4-.36l1.36-1.36a1.34,1.34,0,0,0,.55.13,1.4,1.4,0,0,0,1.41-1.39,1.33,1.33,0,0,0,.73.22h.14l.59-.06a1.2,1.2,0,0,0-.25.34l-.1.2a1.4,1.4,0,0,0,0,1.26l.1.2a1.4,1.4,0,0,0,1.26.78l.33,0a1.43,1.43,0,0,0,1.09-1.38v-.39a1.41,1.41,0,0,0-1.09-1.38.43.43,0,0,0-.16,0,1.41,1.41,0,0,0,.47-1,1.39,1.39,0,0,0-.76-1.31l6-4.18a1.42,1.42,0,0,0,1.49-.17l7.47-5.92a1.39,1.39,0,0,0,.53-1,1.46,1.46,0,0,0-.32-1.06l-1.29-1.55,1.94-3.21,1.43-1.71a1.52,1.52,0,0,0,.42.06,1.36,1.36,0,0,0,.49-.08,1.44,1.44,0,0,0,.89-1.68l-.09-.34.77-.92-1,4a2,2,0,0,0,0,.42l.14,2.5a1.44,1.44,0,0,0-.41.79.76.76,0,0,0-.16,0,1.41,1.41,0,0,0-1.17.63l-.2.29a1.42,1.42,0,0,0,1.18,2.21,1.42,1.42,0,0,0,.41-.08l.12.07a1.45,1.45,0,0,0,.54.11,1.42,1.42,0,0,0,1-.42l.2-.19a1.51,1.51,0,0,0,.32-.56h0a1.32,1.32,0,0,0,.56-.13l.22,0a1.41,1.41,0,0,0,1.14-.59,1.55,1.55,0,0,0,.56-.19l8.8-5.31a1.41,1.41,0,0,0,.66.17l.06,0a1.4,1.4,0,0,0,.56,1.15,1.42,1.42,0,0,0,.83.27,1.44,1.44,0,0,0,1.08-.49l3-3.47.21.06.2,0a1.44,1.44,0,0,0,1.2-.66,1.69,1.69,0,0,0,1,.37,1.4,1.4,0,0,0,1-.48,1.4,1.4,0,0,0,.38.73l.1.1a1.33,1.33,0,0,0,.95.39,1.41,1.41,0,0,0,.41-.07,1.5,1.5,0,0,0,.52.1h.19l.12,0-.23.34a1.41,1.41,0,0,0,.35,1.93,1.36,1.36,0,0,0,.83.28A1.42,1.42,0,0,0,234,500l1.16-1.45a1.38,1.38,0,0,0,.27-.59l10.29,1.3a1.35,1.35,0,0,0,.6-.05l2.39-.75.38.57a1.43,1.43,0,0,0,.57.49l12.29,5.87v.43a1.42,1.42,0,0,0,.57,1.13,1.47,1.47,0,0,0,.85.28,1.74,1.74,0,0,0,.39,0l.68-.2a1.37,1.37,0,0,0,.63-.39l.3.09a1.25,1.25,0,0,0,.43.07,1.45,1.45,0,0,0,.8-.25,1.43,1.43,0,0,0,.61-1.08l.09-1.47a1.26,1.26,0,0,0,.39-.52l3.44,5-2.16-1.34a1.41,1.41,0,0,0-2,1.77,1.35,1.35,0,0,0-.26.47l-.58,1.84a1.42,1.42,0,0,0,.76,1.72,1.37,1.37,0,0,0,.59.13,1.4,1.4,0,0,0,1.2-.68l.19-.29,2.05,3.39a1.44,1.44,0,0,0,1.22.68,1.33,1.33,0,0,0,.47-.08,1.43,1.43,0,0,0,.92-1.14v.15a1.45,1.45,0,0,0,.94,1.19,1.5,1.5,0,0,0,.47.08h.05a1,1,0,0,0,0,.17,1.42,1.42,0,0,0,.76,1.05l.39.19a1.4,1.4,0,0,0,.55.14,1.43,1.43,0,0,0-.17,1.33,1.41,1.41,0,0,0,1,.88l.49.1a1.27,1.27,0,0,0,.28,0l.17,0a1.39,1.39,0,0,0,.83,1.06,1.06,1.06,0,0,0-.37.18,1.41,1.41,0,0,0-.44,1.78l.09.2a1.57,1.57,0,0,0,1.37.78,1.43,1.43,0,0,0,1.31-.88,1.41,1.41,0,0,0-.31-1.54l-.19-.19a1.43,1.43,0,0,0-.44-.3,1.25,1.25,0,0,0,.41-.22,1.41,1.41,0,0,0,.86.73s0,.06,0,.09l.29.38a1.42,1.42,0,0,0,1.13.57h.2a1.41,1.41,0,0,0,1.16-.62l.8.5a1.37,1.37,0,0,0,.76.22,1.47,1.47,0,0,0,.92-.34,1.43,1.43,0,0,0,.38-1.64l-.12-.27.51.25a1.43,1.43,0,0,0,.64.15A1.45,1.45,0,0,0,289,521a1.54,1.54,0,0,0,.29-.21,1.39,1.39,0,0,0,1.9-.49l2.42-4A1.43,1.43,0,0,0,293.67,515Zm-87.32-73.15A11.34,11.34,0,1,1,195,453.23,11.34,11.34,0,0,1,206.35,441.89Zm12.29,47.49H194.06a4.6,4.6,0,0,1-4.61-4.61v-4.22a13.84,13.84,0,0,1,13.84-13.84h6.12a13.84,13.84,0,0,1,13.84,13.84v4.22A4.6,4.6,0,0,1,218.64,489.38Zm5.94,5.32a1.15,1.15,0,0,0-.14.27l-.06,0a1.37,1.37,0,0,0-1.14,0,1.43,1.43,0,0,0-.63-.81,1.36,1.36,0,0,0,0-.29l.22.05a1.38,1.38,0,0,0,.78,0,1.67,1.67,0,0,0,.33.32l.29.2a1.33,1.33,0,0,0,.45.18S224.6,494.66,224.58,494.7Zm2.93-.25a1.42,1.42,0,0,0-1.26-.48h-.05a1.41,1.41,0,0,0,.19-.61l1.63,1A1.44,1.44,0,0,0,227.51,494.45Zm39.77,6.95a1.84,1.84,0,0,0-.17.38,1.31,1.31,0,0,0-.57-.24h-.1l0-1,1,.69A2,2,0,0,0,267.28,501.4Zm5.71,9.27.17,1.61-.27-2a1.4,1.4,0,0,0-.41-.82,1.61,1.61,0,0,0,.52-.11,1.35,1.35,0,0,0,.47-.34,1.44,1.44,0,0,0,0,.46A1.39,1.39,0,0,0,273,510.67Zm.86-2.58a1.22,1.22,0,0,0,0-.38l-.42-2.11.33.24.54,1.94A1.67,1.67,0,0,0,273.85,508.09Zm8,6,.38.12.1.29Zm5,3.27-.1.2a1.48,1.48,0,0,0-.13.65,1.44,1.44,0,0,0-.43.49l-.4-.92.06,0,1.14-.7,0,.07A1.46,1.46,0,0,0,286.91,517.35Z"/><path class="cls-1" d="M206.69,507.71l-1.85-.59a1.47,1.47,0,0,0-1.28.22l-2.32,1.75a1.43,1.43,0,0,0-.57,1,1.48,1.48,0,0,0,.1.66,1.39,1.39,0,0,0,0,.4l.08.35-1.42.93a1.42,1.42,0,0,0-.36.33l-.36.47-.09,0a1.4,1.4,0,0,0-.67,1l-2,2.61a1.42,1.42,0,0,0,.09,1.83l.07.07-.06,0-.19.1a1.38,1.38,0,0,0-.71.81l-.2.59a1.41,1.41,0,0,0,.77,1.74,1.47,1.47,0,0,0,.58.12A1.49,1.49,0,0,0,197,522a1.41,1.41,0,0,0,.8.26h.13a1.42,1.42,0,0,0,1.11-.7l.38-.68a1.37,1.37,0,0,0,.15-.38l7.14-5.3a1.42,1.42,0,0,0-.07-2.33l-.14-.09a1.38,1.38,0,0,0,0-1l-.2-.48a1.11,1.11,0,0,0-.18-.32l1-.74a1.41,1.41,0,0,0-.42-2.48Z"/><path class="cls-1" d="M227.78,500.77a1.41,1.41,0,0,0-1.75.2l-.2.19a1.43,1.43,0,0,0,0,2l.1.09a1.42,1.42,0,0,0,1,.42,1.24,1.24,0,0,0,.33,0,1.41,1.41,0,0,0,1-.93l.1-.29A1.43,1.43,0,0,0,227.78,500.77Z"/></g></g></svg>